<?xml version="1.0" encoding="utf-8" ?>
<svg xmlns="http://www.w3.org/2000/svg" xmlns:xlink="http://www.w3.org/1999/xlink" width="689" height="689">
	<path fill="#91274B" transform="scale(0.672852 0.672852)" d="M200.482 338.157Q201.586 338.148 202.682 338.28Q203.778 338.412 204.849 338.682Q205.919 338.952 206.947 339.356Q207.974 339.76 208.942 340.292C212.726 342.375 215.34 345.92 216.405 350.091Q216.514 350.511 216.601 350.936Q216.688 351.362 216.753 351.791Q216.818 352.22 216.861 352.652Q216.904 353.084 216.924 353.517Q216.944 353.951 216.942 354.385Q216.939 354.819 216.914 355.252Q216.889 355.685 216.842 356.117Q216.795 356.548 216.725 356.977Q216.655 357.405 216.564 357.829Q216.472 358.253 216.358 358.672Q216.245 359.091 216.109 359.504Q215.974 359.916 215.818 360.321Q215.661 360.726 215.484 361.122Q215.306 361.518 215.109 361.904Q214.911 362.291 214.694 362.666Q214.477 363.042 214.24 363.406C211.105 368.229 206.455 370.449 201.006 371.57C197.053 371.05 193.641 370.387 190.317 368.032C186.689 365.462 184.192 361.596 183.516 357.188C182.861 352.925 183.868 348.463 186.526 345.035C190.014 340.535 195.071 338.894 200.482 338.157Z"/>
	<path fill="#9F453F" transform="scale(0.672852 0.672852)" d="M819.751 650.619C823.652 650.242 827.107 650.31 830.718 652.022Q831.484 652.387 832.21 652.825Q832.936 653.264 833.616 653.772Q834.295 654.28 834.921 654.852Q835.547 655.425 836.113 656.056Q836.68 656.688 837.181 657.372Q837.683 658.056 838.114 658.786Q838.546 659.517 838.903 660.286Q839.26 661.055 839.54 661.856C840.981 665.954 840.792 670.505 838.768 674.376C836.304 679.089 832.046 681.506 827.095 682.941C823.318 683.528 819.506 683.228 816.021 681.57Q815.287 681.219 814.591 680.798Q813.895 680.376 813.244 679.888Q812.594 679.399 811.995 678.849Q811.395 678.299 810.853 677.692Q810.311 677.085 809.832 676.427Q809.353 675.77 808.941 675.068Q808.529 674.366 808.189 673.627Q807.849 672.888 807.583 672.119C806.072 667.774 806.412 662.733 808.626 658.681C811.129 654.101 814.985 652.111 819.751 650.619Z"/>
	<path fill="#D87A57" transform="scale(0.672852 0.672852)" d="M691.323 288.276C692.78 288.161 693.028 287.643 694.096 286.62C697.482 283.375 700.533 279.637 703.846 276.28Q721.399 258.581 738.705 240.641C753.585 225.305 769.021 210.548 784.237 195.555C789.7 190.172 794.702 184.147 800.338 178.985Q804.577 183.02 808.533 187.332C804.036 194.48 788.476 208.637 781.814 215.369C755.588 241.871 730.074 269.271 703.085 294.981C701.861 296.147 701.112 296.262 701.311 298.034L701.063 298.206C697.953 294.973 694.839 291.294 691.183 288.697L691.323 288.276Z"/>
	<path fill="#D87A57" transform="scale(0.672852 0.672852)" d="M838.587 211.486C841.978 214.591 845.574 217.615 848.674 221.012C836.771 232.219 737.548 329.47 736.633 333.388L736.125 333.295C733.512 329.797 729.931 327.264 727.025 324.029C731.437 320.003 735.41 315.31 739.512 310.96Q749.384 300.55 759.436 290.314Q784.98 264.31 811.04 238.824C820.229 229.735 829.236 220.403 838.587 211.486Z"/>
	<defs>
		<linearGradient id="gradient_0" gradientUnits="userSpaceOnUse" x1="276.72293" y1="759.63184" x2="208.84425" y2="730.24792">
			<stop offset="0" stop-color="#FE9739"/>
			<stop offset="1" stop-color="#FF814E"/>
		</linearGradient>
	</defs>
	<path fill="url(#gradient_0)" transform="scale(0.672852 0.672852)" d="M300.371 678.634C302.763 683.079 305.008 687.718 307.644 692.016C303.494 697.71 297.452 702.909 292.375 707.807L267.244 732.081Q226.966 771.569 187.456 811.826C183.903 808.351 180.263 804.953 176.667 801.521C192.739 787.115 207.726 771.518 222.956 756.237C235.675 743.474 248.689 731.035 261.501 718.37Q270.357 709.616 278.991 700.643C282.218 697.297 285.475 693.287 289.155 690.485C293.314 687.41 297.07 682.6 300.371 678.634Z"/>
	<path fill="#D87A57" transform="scale(0.672852 0.672852)" d="M329.196 720.041C333.038 723.625 336.941 727.162 340.629 730.905C338.979 732.76 337.485 734.211 335.414 735.62L223.597 846.305C219.916 842.868 216.217 839.565 212.999 835.675C242.698 807.53 271.015 777.825 300.165 749.097C309.795 739.607 318.858 728.676 329.196 720.041Z"/>
	<path fill="#91274B" transform="scale(0.672852 0.672852)" d="M787.13 686.251C790.647 687.324 808.778 707.044 812.418 710.728C798.934 721.998 786.991 735.798 774.544 748.203L704.691 818.049C695.832 826.942 687.301 836.193 678.307 844.941C678.011 845.133 677.622 845.116 677.277 845.187C669.715 840.433 659.425 827.716 653.429 820.883C679.216 794.228 705.944 768.405 732.091 742.096C750.523 723.549 768.27 704.386 787.13 686.251Z"/>
	<path fill="#91274B" transform="scale(0.672852 0.672852)" d="M344.603 177.519C346.665 177.459 348.995 177.361 351.015 177.824C358.592 179.564 366.676 187.649 370.637 194.078C372.63 197.313 374.071 201.184 372.949 204.997C372.087 207.93 368.82 211.366 366.732 213.592C360.439 220.302 353.521 226.585 347.023 233.122L294.599 285.631L262.459 317.78C256.422 323.787 247.709 333.917 240.635 337.964C239.177 338.053 237.662 338.137 236.21 337.949C229.076 337.023 220.468 328.231 216.332 322.781C213.69 319.299 211.191 315.066 211.946 310.523C212.447 307.507 214.761 305.444 216.775 303.303C230.276 288.946 244.759 275.39 258.931 261.702Q277.339 243.732 295.523 225.536L325.139 196.067C331.265 189.914 337.467 182.414 344.603 177.519Z"/>
	<path fill="#F2A124" transform="scale(0.672852 0.672852)" d="M663.197 757.554C665.652 758.469 668.215 759.303 670.614 760.349C658.053 771.321 646.389 783.511 634.492 795.193L584.9 843.805C561.537 867.169 537.32 889.789 514.703 913.864C513.855 911.454 513.349 909.069 513.167 906.519C512.663 899.442 512.964 892.173 512.959 885.073L512.954 846.421L512.972 816.109C512.979 808.757 512.702 801.297 513.666 793.995C533.703 793.992 553.846 793.395 573.505 789.18C597.939 785.533 621.238 775.476 644.007 766.357C650.04 763.941 658.446 761.979 663.197 757.554Z"/>
	<path fill="#CE8C22" transform="scale(0.672852 0.672852)" d="M340.629 730.905C387.508 773.599 450.817 793.922 513.666 793.995C512.702 801.297 512.979 808.757 512.972 816.109L512.954 846.421L512.959 885.073C512.964 892.173 512.663 899.442 513.167 906.519C513.349 909.069 513.855 911.454 514.703 913.864L513.578 914.487C509.529 913.229 476.48 877.353 471.197 871.995L378.216 778.952L353.131 753.978C347.124 748.017 340.821 742.135 335.414 735.62C337.485 734.211 338.979 732.76 340.629 730.905Z"/>
	<path fill="#F2A124" transform="scale(0.672852 0.672852)" d="M511.74 110.952C516.826 113.177 532.553 130.709 537.705 135.889Q587.867 186.244 638.568 236.058Q656.375 253.488 673.984 271.119C679.73 276.793 686.067 282.155 691.323 288.276L691.183 288.697C683.687 295.177 672.726 304.029 667.572 312.318C661.309 300.774 653.437 289.952 644.854 280.026Q643.657 278.656 642.433 277.311Q641.208 275.966 639.956 274.646Q638.703 273.327 637.424 272.034Q636.145 270.74 634.839 269.474Q633.533 268.208 632.201 266.968Q630.869 265.729 629.512 264.518Q628.154 263.307 626.772 262.124Q625.39 260.942 623.984 259.788Q622.577 258.634 621.147 257.509Q619.717 256.385 618.264 255.29Q616.811 254.196 615.336 253.132Q613.86 252.068 612.363 251.034Q610.866 250.001 609.348 248.999Q607.83 247.997 606.291 247.026Q604.752 246.056 603.194 245.117Q601.635 244.179 600.058 243.273Q598.48 242.368 596.884 241.495Q595.288 240.622 593.675 239.782Q592.061 238.943 590.43 238.137Q588.799 237.331 587.152 236.559Q585.505 235.787 583.842 235.049Q582.179 234.311 580.501 233.608Q578.823 232.905 577.131 232.237Q575.439 231.569 573.734 230.936Q572.028 230.303 570.31 229.706Q568.592 229.109 566.862 228.547Q565.131 227.985 563.39 227.46Q561.648 226.934 559.896 226.445Q558.144 225.955 556.382 225.502Q554.621 225.049 552.85 224.633Q551.079 224.217 549.3 223.837Q547.521 223.458 545.734 223.115C534.724 220.979 523.739 220.091 512.578 219.287L512.04 218.969L512.026 149.609C512.023 136.862 512.947 123.617 511.74 110.952Z"/>
	<path fill="#9F453F" transform="scale(0.672852 0.672852)" d="M512.578 219.287C523.739 220.091 534.724 220.979 545.734 223.115Q547.521 223.458 549.3 223.837Q551.079 224.217 552.85 224.633Q554.621 225.049 556.382 225.502Q558.144 225.955 559.896 226.445Q561.648 226.934 563.39 227.46Q565.131 227.985 566.862 228.547Q568.592 229.109 570.31 229.706Q572.028 230.303 573.734 230.936Q575.439 231.569 577.131 232.237Q578.823 232.905 580.501 233.608Q582.179 234.311 583.842 235.049Q585.505 235.787 587.152 236.559Q588.799 237.331 590.43 238.137Q592.061 238.943 593.674 239.782Q595.288 240.622 596.884 241.495Q598.48 242.368 600.058 243.273Q601.635 244.179 603.194 245.117Q604.752 246.056 606.291 247.026Q607.83 247.997 609.348 248.999Q610.866 250.001 612.363 251.034Q613.86 252.068 615.336 253.132Q616.811 254.196 618.264 255.29Q619.717 256.385 621.147 257.509Q622.577 258.634 623.984 259.788Q625.39 260.942 626.772 262.124Q628.154 263.307 629.512 264.518Q630.869 265.729 632.201 266.968Q633.533 268.208 634.839 269.474Q636.145 270.74 637.424 272.034Q638.703 273.327 639.956 274.646Q641.208 275.966 642.433 277.311Q643.657 278.656 644.854 280.026C653.437 289.952 661.309 300.774 667.572 312.318C669.833 316.718 672.447 321.174 674.46 325.682C679.553 337.994 683.315 349.987 686.325 362.964C687.174 368.454 687.732 374.238 688.993 379.634L688.867 380.198C678.752 377.835 669.144 368.322 658.832 364.499C652.566 340.266 638.533 321.461 621.078 304.142C617.572 308.3 613.606 312.392 610.352 316.704C592.44 305.494 572.643 300.321 551.766 305.227C536.043 308.922 523.971 317.716 512.74 328.974C511.248 325.339 511.631 269.485 512.625 263.641C513.76 262.75 514.531 262.892 515.947 262.774C514.678 262.538 513.319 262.574 512.028 262.518C510.855 256.565 510.529 223.297 512.578 219.287Z"/>
	<path fill="#601D3A" transform="scale(0.672852 0.672852)" d="M512.74 328.974C511.248 325.339 511.631 269.485 512.625 263.641C513.76 262.75 514.531 262.892 515.947 262.774C546.007 265.497 573.173 271.094 599.294 287.099C607.265 291.984 614.702 297.245 621.078 304.142C617.572 308.3 613.606 312.392 610.352 316.704C592.44 305.494 572.643 300.321 551.766 305.227C536.043 308.922 523.971 317.716 512.74 328.974Z"/>
	<path fill="#F2A124" transform="scale(0.672852 0.672852)" d="M114.392 520.31C126.895 518.492 139.827 517.845 152.427 516.788L235.278 510.536Q259.463 508.564 283.587 505.945C290.457 505.246 297.283 504.108 304.191 503.871C280.572 553.337 272.788 604.88 291.421 657.52C293.997 664.797 297.147 671.637 300.371 678.634C297.07 682.6 293.314 687.41 289.155 690.485C284.288 684.73 279.105 679.238 273.996 673.698L269.116 668.749C255.91 656.14 243.29 642.898 230.426 629.942C192.969 592.22 155.525 554.067 114.392 520.31Z"/>
	<path fill="#FBFBFA" transform="scale(0.672852 0.672852)" d="M269.116 668.749C268.376 664.776 268.341 661.873 270.813 658.407C272.336 656.27 274.7 654.71 277.331 654.397C279.881 654.093 282.332 655.014 284.266 656.656C286.769 658.783 287.874 661.66 288.7 664.745C287.849 668.093 287.181 671.303 283.986 673.224C280.973 675.036 277.223 674.561 273.996 673.698L269.116 668.749Z"/>
	<path fill="#FBFBFA" transform="scale(0.672852 0.672852)" d="M231.35 517.015C232.739 517.2 234.175 517.365 235.51 517.801C240.115 519.306 241.854 523.074 243.814 527.113Q243.486 528.454 243.068 529.77C241.577 534.306 239.095 536.263 234.908 538.302C233.465 538.412 232.168 538.248 230.776 537.838C228.042 537.032 225.764 535.748 224.396 533.159C223.003 530.523 222.821 527.29 223.782 524.481C225.188 520.368 227.685 518.844 231.35 517.015Z"/>
	<path fill="#91274B" transform="scale(0.672852 0.672852)" d="M326.903 469.573C326.935 469.791 326.97 470.009 327 470.228C328.127 478.573 327.44 487.494 327.333 495.916C327.127 512.113 326.739 528.24 328.136 544.403C334.612 619.315 382.608 688.522 440.859 733.611Q445.862 737.445 451.03 741.054Q456.198 744.663 461.521 748.04Q466.844 751.416 472.311 754.554Q477.778 757.691 483.379 760.583Q488.98 763.475 494.703 766.117Q500.427 768.758 506.262 771.143Q512.097 773.528 518.031 775.652Q523.966 777.777 529.989 779.636C542.136 783.298 554.111 785.509 566.632 787.392C568.863 787.728 571.623 787.856 573.505 789.18C553.846 793.395 533.703 793.992 513.666 793.995C450.817 793.922 387.508 773.599 340.629 730.905C336.941 727.162 333.038 723.625 329.196 720.041C321.455 711.254 314.993 701.157 307.644 692.016C305.008 687.718 302.763 683.079 300.371 678.634C297.147 671.637 293.997 664.797 291.421 657.52C272.788 604.88 280.572 553.337 304.191 503.871C311.291 491.888 318.256 480.504 326.903 469.573Z"/>
	<path fill="#FEC334" transform="scale(0.672852 0.672852)" d="M106.627 514.685C135.26 485.241 165.101 457.011 194.166 428.001L383.544 238.806Q426.405 196.613 468.771 153.923C476.515 146.122 484.352 138.429 491.992 130.525C498.338 123.96 504.602 116.649 511.74 110.952C512.947 123.617 512.023 136.862 512.026 149.609L512.04 218.969C502.047 219.563 492.041 219.976 482.136 221.494C439.412 228.044 402.668 248.766 374.028 280.96C347.344 310.956 330.115 347.775 327.295 388.041C326.093 405.194 326.975 422.792 326.594 440.023C326.475 445.416 326.307 450.821 326.501 456.215C326.657 460.557 327.325 465.26 326.903 469.573C318.256 480.504 311.291 491.888 304.191 503.871C297.283 504.108 290.457 505.246 283.587 505.945Q259.463 508.564 235.278 510.536L152.427 516.788C139.827 517.845 126.895 518.492 114.392 520.31C111.685 518.801 109.12 516.549 106.627 514.685Z"/>
	<path fill="#FBFBFA" transform="scale(0.672852 0.672852)" d="M281.618 418.542C285.942 418.351 290.003 418.7 293.976 420.556Q294.461 420.786 294.935 421.04Q295.408 421.294 295.868 421.572Q296.328 421.849 296.774 422.149Q297.219 422.449 297.649 422.77Q298.08 423.092 298.493 423.435Q298.907 423.777 299.303 424.14Q299.699 424.503 300.077 424.885Q300.454 425.267 300.812 425.668Q301.17 426.068 301.508 426.486Q301.845 426.904 302.162 427.338Q302.478 427.772 302.773 428.221Q303.067 428.67 303.339 429.134Q303.611 429.597 303.859 430.073Q304.107 430.55 304.332 431.038Q304.556 431.526 304.756 432.024Q304.955 432.523 305.13 433.031Q305.31 433.546 305.464 434.069Q305.618 434.593 305.746 435.124Q305.873 435.654 305.973 436.19Q306.073 436.727 306.147 437.268Q306.22 437.808 306.265 438.352Q306.311 438.896 306.329 439.441Q306.347 439.986 306.337 440.532Q306.327 441.078 306.29 441.622Q306.253 442.166 306.188 442.708Q306.123 443.25 306.031 443.788Q305.939 444.326 305.82 444.858Q305.701 445.391 305.555 445.916Q305.409 446.442 305.237 446.96Q305.064 447.477 304.866 447.986Q304.667 448.494 304.444 448.992Q304.22 449.489 303.971 449.975C300.708 456.321 295.473 459.429 288.938 461.547C284.049 461.866 279.861 461.61 275.332 459.411Q274.842 459.17 274.365 458.905Q273.888 458.641 273.425 458.352Q272.962 458.064 272.513 457.753Q272.065 457.443 271.632 457.11Q271.2 456.777 270.784 456.424Q270.369 456.07 269.971 455.696Q269.574 455.322 269.195 454.929Q268.817 454.536 268.459 454.125Q268.1 453.713 267.763 453.284Q267.425 452.856 267.109 452.411Q266.793 451.966 266.5 451.506Q266.206 451.046 265.936 450.572Q265.666 450.098 265.419 449.611Q265.173 449.125 264.951 448.626Q264.729 448.128 264.532 447.619Q264.335 447.11 264.163 446.592C262.424 441.47 262.672 435.902 265.093 431.041C268.527 424.147 274.728 421.014 281.618 418.542Z"/>
	<path fill="#CE8C22" transform="scale(0.672852 0.672852)" d="M691.183 288.697C694.839 291.294 697.953 294.973 701.063 298.206L701.311 298.034C708.684 305.022 721.083 316.152 727.025 324.029C729.931 327.264 733.512 329.797 736.125 333.295L736.633 333.388C743.083 338.373 748.902 345.094 754.589 350.937C766.233 362.901 777.633 375.079 789.455 386.872C831.386 428.704 874.162 469.844 915.486 512.261C904.036 524.295 891.724 535.544 880.076 547.396Q822.854 606.086 764.896 664.048L721.97 707.385C717.01 712.316 710.839 719.774 705.129 723.463C709.621 715.69 714.668 708.367 718.788 700.352Q720.084 697.767 721.308 695.148Q722.532 692.528 723.684 689.876Q724.835 687.223 725.912 684.54Q726.989 681.857 727.991 679.144Q728.993 676.432 729.92 673.693Q730.847 670.954 731.697 668.191Q732.547 665.427 733.321 662.641Q734.094 659.855 734.79 657.049Q735.486 654.242 736.104 651.418Q736.722 648.593 737.261 645.752Q737.801 642.911 738.261 640.057Q738.721 637.202 739.102 634.336Q739.483 631.47 739.785 628.594Q740.086 625.719 740.308 622.836Q740.529 619.953 740.671 617.065Q740.812 614.177 740.874 611.286C742.167 559.65 725.348 504.717 689.196 466.783C690.447 457.346 689.03 447.374 688.982 437.856C688.887 418.653 689.396 399.39 688.867 380.198L688.993 379.634C687.732 374.238 687.174 368.454 686.325 362.964C683.315 349.987 679.553 337.994 674.46 325.682C672.447 321.174 669.833 316.718 667.572 312.318C672.726 304.029 683.687 295.177 691.183 288.697Z"/>
	<path fill="#FBFBFA" transform="scale(0.672852 0.672852)" d="M727.025 324.029C729.931 327.264 733.512 329.797 736.125 333.295C725.121 343.793 714.856 355.27 704.059 366.019C699.464 370.593 694.449 376.158 688.993 379.634C687.732 374.238 687.174 368.454 686.325 362.964C692.147 356.672 721.517 326.83 727.025 324.029Z"/>
	<path fill="#FBFBFA" transform="scale(0.672852 0.672852)" d="M791.542 473.068C795.292 472.722 798.732 472.901 802.206 474.486C806.739 476.556 810.083 480.479 811.711 485.159C813.429 490.1 813.169 495.669 810.706 500.313C807.814 505.765 803.219 508.625 797.47 510.254C793.152 510.484 789.047 510.023 785.212 507.877Q784.787 507.634 784.375 507.369Q783.964 507.104 783.566 506.819Q783.168 506.533 782.786 506.227Q782.404 505.921 782.038 505.596Q781.672 505.271 781.323 504.927Q780.974 504.584 780.644 504.223Q780.313 503.862 780.002 503.484Q779.69 503.106 779.398 502.713Q779.107 502.32 778.836 501.912Q778.565 501.504 778.316 501.083Q778.066 500.662 777.839 500.228Q777.611 499.795 777.406 499.35Q777.202 498.905 777.02 498.451Q776.839 497.996 776.681 497.533Q776.523 497.069 776.389 496.598Q776.255 496.127 776.146 495.65Q775.936 494.758 775.814 493.85Q775.692 492.942 775.659 492.026Q775.626 491.111 775.683 490.196Q775.739 489.282 775.885 488.377Q776.03 487.472 776.263 486.586Q776.496 485.7 776.814 484.841Q777.132 483.981 777.533 483.157Q777.933 482.333 778.412 481.552C781.524 476.556 786.07 474.441 791.542 473.068Z"/>
	<path fill="#F2A124" transform="scale(0.672852 0.672852)" d="M691.183 288.697C694.839 291.294 697.953 294.973 701.063 298.206L701.311 298.034C708.684 305.022 721.083 316.152 727.025 324.029C721.517 326.83 692.147 356.672 686.325 362.964C683.315 349.987 679.553 337.994 674.46 325.682C672.447 321.174 669.833 316.718 667.572 312.318C672.726 304.029 683.687 295.177 691.183 288.697Z"/>
	<path fill="#FBFBFA" transform="scale(0.672852 0.672852)" d="M691.183 288.697C694.839 291.294 697.953 294.973 701.063 298.206C695.378 306.968 682.613 318.839 674.46 325.682C672.447 321.174 669.833 316.718 667.572 312.318C672.726 304.029 683.687 295.177 691.183 288.697Z"/>
	<defs>
		<linearGradient id="gradient_1" gradientUnits="userSpaceOnUse" x1="681.6795" y1="515.65063" x2="319.5192" y2="484.68384">
			<stop offset="0" stop-color="#D5804D"/>
			<stop offset="1" stop-color="#DB755F"/>
		</linearGradient>
	</defs>
	<path fill="url(#gradient_1)" transform="scale(0.672852 0.672852)" d="M512.04 218.969L512.578 219.287C510.529 223.297 510.855 256.565 512.028 262.518C513.319 262.574 514.678 262.538 515.947 262.774C514.531 262.892 513.76 262.75 512.625 263.641C511.631 269.485 511.248 325.339 512.74 328.974C523.971 317.716 536.043 308.922 551.766 305.227C572.643 300.321 592.44 305.494 610.352 316.704C613.606 312.392 617.572 308.3 621.078 304.142C638.533 321.461 652.566 340.266 658.832 364.499C669.144 368.322 678.752 377.835 688.867 380.198C689.396 399.39 688.887 418.653 688.982 437.856C689.03 447.374 690.447 457.346 689.196 466.783C725.348 504.717 742.167 559.65 740.874 611.286Q740.812 614.177 740.671 617.065Q740.529 619.953 740.308 622.836Q740.086 625.719 739.785 628.594Q739.483 631.47 739.102 634.336Q738.721 637.202 738.261 640.057Q737.801 642.911 737.261 645.752Q736.722 648.593 736.104 651.418Q735.486 654.242 734.79 657.049Q734.094 659.855 733.321 662.641Q732.547 665.427 731.697 668.191Q730.847 670.954 729.92 673.693Q728.993 676.432 727.991 679.144Q726.989 681.857 725.912 684.54Q724.835 687.223 723.684 689.876Q722.532 692.528 721.308 695.148Q720.084 697.767 718.788 700.352C714.668 708.367 709.621 715.69 705.129 723.463C694.465 737.07 684.956 750.283 670.614 760.349C668.215 759.303 665.652 758.469 663.197 757.554C658.446 761.979 650.04 763.941 644.007 766.357C621.238 775.476 597.939 785.533 573.505 789.18C571.623 787.856 568.863 787.728 566.632 787.392C554.111 785.509 542.136 783.298 529.989 779.636Q523.966 777.777 518.031 775.652Q512.097 773.528 506.262 771.143Q500.427 768.758 494.703 766.117Q488.98 763.475 483.379 760.583Q477.778 757.691 472.311 754.554Q466.844 751.416 461.521 748.04Q456.198 744.663 451.03 741.054Q445.862 737.445 440.859 733.611C382.608 688.522 334.612 619.315 328.136 544.403C326.739 528.24 327.127 512.113 327.333 495.916C327.44 487.494 328.127 478.573 327 470.228C326.97 470.009 326.935 469.791 326.903 469.573C327.325 465.26 326.657 460.557 326.501 456.215C326.307 450.821 326.475 445.416 326.594 440.023C326.975 422.792 326.093 405.194 327.295 388.041C330.115 347.775 347.344 310.956 374.028 280.96C402.668 248.766 439.412 228.044 482.136 221.494C492.041 219.976 502.047 219.563 512.04 218.969Z"/>
	<path fill="#9F453F" transform="scale(0.672852 0.672852)" d="M419.08 511.115C429.408 520.041 437.684 531.194 446.827 541.269C456.249 551.651 502.285 601.169 512.395 604.701C513.737 607.37 512.887 654.982 512.758 660.559C502.766 650.83 494.565 639.29 486.594 627.899C469.996 604.179 455.418 579.427 441.33 554.153C433.474 540.059 425.177 526.081 419.08 511.115Z"/>
	<path fill="#91274B" transform="scale(0.672852 0.672852)" d="M512.028 262.518C513.319 262.574 514.678 262.538 515.947 262.774C514.531 262.892 513.76 262.75 512.625 263.641C511.631 269.485 511.248 325.339 512.74 328.974L511.785 329.837C508.687 328.665 500.452 320.034 496.877 317.279C476.115 301.279 449.068 298.677 425.32 309.45C405.945 318.239 392.235 334.721 384.881 354.468C381.685 363.05 380.033 371.907 378.894 380.964C372.989 378.353 368.262 371.271 362.182 369.154C362.281 368.603 362.39 368.052 362.483 367.5C366.54 343.492 381.543 319.152 398.642 302.202C419.783 281.245 449.822 267.334 479.299 263.629C490.184 262.262 501.087 262.465 512.028 262.518Z"/>
	<path fill="#2B314C" transform="scale(0.672852 0.672852)" d="M362.182 369.154C368.262 371.271 372.989 378.353 378.894 380.964L378.765 383.663C376.476 392.448 382.65 417.857 386.318 426.619C389.525 434.614 392.269 442.658 396.375 450.275C409.844 475.255 432.729 495.035 458.751 506.019C473.322 512.169 497.213 517.676 513.058 515.784L512.997 573.279C512.998 583.592 512.538 594.108 513.134 604.391L512.395 604.701C502.285 601.169 456.249 551.651 446.827 541.269C437.684 531.194 429.408 520.041 419.08 511.115C416.254 506.528 412.3 502.137 408.865 497.982C402.285 490.024 395.473 482.208 389.269 473.952C365.29 442.048 356.556 408.819 362.182 369.154Z"/>
	<path fill="#FBFBFA" transform="scale(0.672852 0.672852)" d="M378.894 380.964C380.033 371.907 381.685 363.05 384.881 354.468C392.235 334.721 405.945 318.239 425.32 309.45C449.068 298.677 476.115 301.279 496.877 317.279C500.452 320.034 508.687 328.665 511.785 329.837L512.74 328.974C523.971 317.716 536.043 308.922 551.766 305.227C572.643 300.321 592.44 305.494 610.352 316.704C633.61 335.933 643.669 356.259 647.142 386.17C648.903 398.894 645.037 415.04 640.175 426.832C628.009 459.805 597.265 488.287 565.698 502.86C548.644 510.734 531.724 514.366 513.058 515.784C497.213 517.676 473.322 512.169 458.751 506.019C432.729 495.035 409.844 475.255 396.375 450.275C392.269 442.658 389.525 434.614 386.318 426.619C382.65 417.857 376.476 392.448 378.765 383.663L378.894 380.964Z"/>
	<path fill="#91274B" transform="scale(0.672852 0.672852)" d="M627.253 369.394C633.361 375.434 639.516 382.062 647.142 386.17C648.903 398.894 645.037 415.04 640.175 426.832C629.669 418.891 610.617 409.357 598.512 402.9C609.751 389.142 618.467 387.136 627.253 369.394Z"/>
	<path fill="#9DA6BA" transform="scale(0.672852 0.672852)" d="M465.195 418.249L465.601 417.709C470.18 419.989 474.024 423.944 478.666 426.403C496.082 435.627 517.795 437.082 536.41 430.743C540.853 429.23 545.863 427.177 549.713 424.469C552.137 422.764 556.707 418.239 559.172 417.25C559.314 417.193 559.478 417.265 559.63 417.273L558.857 418.517C558.505 422.968 556.542 427.245 554.226 431.027Q553.558 432.096 552.84 433.132Q552.122 434.167 551.354 435.167Q550.587 436.167 549.772 437.128Q548.957 438.09 548.097 439.011Q547.237 439.932 546.333 440.81Q545.429 441.689 544.484 442.523Q543.539 443.356 542.555 444.144Q541.571 444.931 540.55 445.67Q539.529 446.409 538.474 447.098Q537.418 447.787 536.331 448.424Q535.244 449.061 534.127 449.645Q533.01 450.228 531.866 450.758Q530.722 451.287 529.554 451.761Q528.386 452.234 527.197 452.651Q526.007 453.067 524.799 453.426Q523.591 453.785 522.367 454.085Q521.239 454.35 520.099 454.559Q518.96 454.767 517.811 454.92Q516.663 455.072 515.508 455.167Q514.354 455.263 513.196 455.301Q512.038 455.339 510.879 455.32Q509.721 455.301 508.565 455.225Q507.409 455.148 506.258 455.015Q505.107 454.882 503.964 454.692Q502.821 454.502 501.689 454.256Q500.557 454.01 499.439 453.708Q498.32 453.406 497.218 453.05Q496.116 452.693 495.032 452.282Q493.949 451.872 492.887 451.408Q491.825 450.945 490.788 450.429Q489.75 449.914 488.739 449.347Q487.729 448.781 486.747 448.166C476.295 441.651 467.936 430.307 465.195 418.249Z"/>
	<path fill="#2B314C" transform="scale(0.672852 0.672852)" d="M465.195 418.249L465.601 417.709C470.18 419.989 474.024 423.944 478.666 426.403C496.082 435.627 517.795 437.082 536.41 430.743C540.853 429.23 545.863 427.177 549.713 424.469C552.137 422.764 556.707 418.239 559.172 417.25C559.314 417.193 559.478 417.265 559.63 417.273L558.857 418.517C548.876 428.582 537.953 436.876 523.74 439.523C508.207 442.416 489.924 438.472 477.215 428.941C473.053 425.82 469.883 421.372 465.557 418.482C465.438 418.402 465.316 418.326 465.195 418.249Z"/>
	<path fill="#261F31" transform="scale(0.672852 0.672852)" d="M485.311 375.548C486.397 374.297 487.503 373.278 488.877 372.34C495.998 367.478 508.873 365.004 517.261 366.434C522.125 366.677 527.599 367.969 531.943 370.21C537.807 373.199 543.633 376.648 545.837 383.286C547.854 389.361 545.872 396.103 542.921 401.536C538.253 410.128 530.864 416.734 521.417 419.526Q520.658 419.754 519.889 419.945Q519.121 420.136 518.343 420.29Q517.566 420.443 516.783 420.559Q515.999 420.675 515.211 420.753Q514.422 420.831 513.631 420.87Q512.84 420.91 512.047 420.911Q511.255 420.912 510.464 420.875Q509.673 420.838 508.884 420.763Q508.095 420.688 507.311 420.574Q506.527 420.461 505.75 420.309Q504.972 420.158 504.203 419.969Q503.433 419.781 502.674 419.555Q501.914 419.329 501.167 419.067Q500.419 418.805 499.685 418.507Q498.951 418.209 498.233 417.876Q497.514 417.543 496.812 417.175C488.838 412.897 482.932 404.57 480.626 395.901C479.16 390.394 479.383 384.276 482.369 379.296C483.211 377.892 484.182 376.725 485.311 375.548Z"/>
	<path fill="#2B314C" transform="scale(0.672852 0.672852)" d="M517.261 366.434C522.125 366.677 527.599 367.969 531.943 370.21C526.963 375.436 519.336 379.662 513.026 383.11C512.995 377.911 512.05 372.376 512.902 367.236C513.912 366.441 515.946 366.552 517.261 366.434Z"/>
	<path fill="#535466" transform="scale(0.672852 0.672852)" d="M485.311 375.548C486.397 374.297 487.503 373.278 488.877 372.34C495.998 367.478 508.873 365.004 517.261 366.434C515.946 366.552 513.912 366.441 512.902 367.236C512.05 372.376 512.995 377.911 513.026 383.11C507.855 384.865 501.136 386.414 495.827 384.591C492.865 383.574 488.019 380.617 486.684 377.679C486.212 376.638 486.471 377.002 485.759 376.084C485.617 375.9 485.461 375.727 485.311 375.548Z"/>
	<path fill="#9F453F" transform="scale(0.672852 0.672852)" d="M542.962 355.791C554.167 348.866 562.626 338.358 576.763 337.624C590.761 336.897 601.029 346.556 610.884 355.047Q619.127 362.154 627.253 369.394C618.467 387.136 609.751 389.142 598.512 402.9C577.321 390.723 556.503 376.749 542.962 355.791Z"/>
	<path fill="#91274B" transform="scale(0.672852 0.672852)" d="M593.641 352.501C594.238 352.781 594.821 353.043 595.333 353.47C598.407 356.035 600.213 360.932 600.572 364.811C600.932 368.69 599.944 372.714 597.387 375.715C594.048 379.636 587.717 382.101 582.604 382.425C577.143 382.77 571.99 380.758 567.92 377.16C563.574 373.317 560.456 367.988 560.263 362.099C560.137 358.285 560.976 354.105 563.708 351.277C566.289 348.604 568.84 348.352 572.406 348.276C568.513 351.46 565.473 354.932 564.859 360.153C564.326 364.689 565.984 369.443 568.977 372.855Q569.495 373.456 570.071 374Q570.647 374.545 571.276 375.029Q571.905 375.512 572.579 375.928Q573.254 376.345 573.968 376.691Q574.681 377.037 575.427 377.308Q576.172 377.579 576.941 377.773Q577.709 377.967 578.494 378.081Q579.279 378.196 580.071 378.23C584.181 378.383 588.61 377.073 591.559 374.111C594.637 371.019 595.94 366.549 595.836 362.27C595.754 358.911 594.649 355.677 593.641 352.501Z"/>
	<path fill="#2B314C" transform="scale(0.672852 0.672852)" d="M572.406 348.276C577.422 346.522 583.156 345.448 588.187 347.776C590.547 348.868 592.263 350.305 593.641 352.501C594.649 355.677 595.754 358.911 595.836 362.27C595.94 366.549 594.637 371.019 591.559 374.111C588.61 377.073 584.181 378.383 580.071 378.23Q579.279 378.196 578.494 378.082Q577.709 377.967 576.941 377.773Q576.172 377.579 575.427 377.308Q574.681 377.037 573.968 376.691Q573.254 376.345 572.579 375.928Q571.905 375.512 571.276 375.029Q570.647 374.545 570.071 374Q569.495 373.456 568.977 372.855C565.984 369.443 564.326 364.689 564.859 360.153C565.473 354.932 568.513 351.46 572.406 348.276Z"/>
	<path fill="#FBFBFA" transform="scale(0.672852 0.672852)" d="M579.506 355.822C581.532 356.052 583.337 356.535 584.832 358.008C585.948 359.107 586.46 360.521 586.337 362.072C586.151 364.396 584.723 365.547 583.089 366.995C581.088 367.084 578.975 366.896 577.407 365.507C576.311 364.536 575.823 363.203 575.932 361.76C576.134 359.099 577.644 357.557 579.506 355.822Z"/>
	<path fill="#EF3166" transform="scale(0.672852 0.672852)" d="M379.77 383.546C389.773 368.492 425.998 340.074 443.273 336.497C452.759 334.533 461.717 336.231 469.745 341.643C474.806 345.055 479.031 349.618 483.016 354.199C461.68 377.934 454.545 392.515 422.928 404.13C413.236 408.266 404.735 414.499 396.002 420.308C392.835 422.414 389.318 424.314 386.318 426.619C382.65 417.857 376.476 392.448 378.765 383.663L379.77 383.546Z"/>
	<path fill="#261F31" transform="scale(0.672852 0.672852)" d="M431.371 349.716C436.398 346.582 441.95 344.589 447.937 345.923C452.746 346.993 456.784 350.063 459.344 354.235C459.559 354.585 459.754 354.947 459.952 355.308L458.334 356.649C458.138 356.013 458.214 356.151 457.945 355.624C456.267 352.336 454.403 349.719 450.733 348.593C444.73 346.751 438.395 349.171 433.153 352.021L431.371 349.716Z"/>
	<path fill="#601D3A" transform="scale(0.672852 0.672852)" d="M459.952 355.308C461.002 357.472 461.611 359.656 461.822 362.06C462.229 366.69 460.759 371.12 457.612 374.553C454.24 378.23 449.36 380.369 444.392 380.566C439.243 380.77 434.063 378.909 430.413 375.23C426.842 371.632 424.901 366.267 425.107 361.221C425.304 356.388 427.908 352.857 431.371 349.716L433.153 352.021C431.054 356.338 429.36 360.94 431.163 365.719C432.398 368.994 435.123 371.399 438.311 372.724C442.365 374.411 446.845 374.256 450.873 372.57C454.039 371.245 456.947 368.848 458.266 365.611C459.484 362.624 459.522 359.623 458.334 356.649L459.952 355.308Z"/>
	<path fill="#2B314C" transform="scale(0.672852 0.672852)" d="M433.153 352.021C438.395 349.171 444.73 346.751 450.733 348.593C454.403 349.719 456.267 352.336 457.945 355.624C458.214 356.151 458.138 356.013 458.334 356.649C459.522 359.623 459.484 362.624 458.266 365.611C456.947 368.848 454.039 371.245 450.873 372.57C446.845 374.256 442.365 374.411 438.311 372.724C435.123 371.399 432.398 368.994 431.163 365.719C429.36 360.94 431.054 356.338 433.153 352.021Z"/>
	<path fill="#FBFBFA" transform="scale(0.672852 0.672852)" d="M441.415 355.475Q441.95 355.454 442.485 355.447C444.592 355.427 446.364 355.91 447.837 357.49C448.813 358.536 449.33 359.816 449.268 361.263C449.154 363.908 447.824 365.339 445.961 367.052C444.032 367.111 441.881 367.073 440.271 365.841C439.176 365.003 438.458 363.945 438.289 362.56C437.928 359.59 439.581 357.576 441.415 355.475Z"/>
	<path fill="#91274B" transform="scale(0.672852 0.672852)" d="M379.77 383.546C387.715 381.718 393.326 384.078 400.056 388.238C404.885 391.222 409.391 394.767 414.021 398.047C416.956 400.126 420.073 401.94 422.928 404.13C413.236 408.266 404.735 414.499 396.002 420.308C392.835 422.414 389.318 424.314 386.318 426.619C382.65 417.857 376.476 392.448 378.765 383.663L379.77 383.546Z"/>
	<path fill="#91274B" transform="scale(0.672852 0.672852)" d="M610.352 316.704C613.606 312.392 617.572 308.3 621.078 304.142C638.533 321.461 652.566 340.266 658.832 364.499C669.144 368.322 678.752 377.835 688.867 380.198C689.396 399.39 688.887 418.653 688.982 437.856C689.03 447.374 690.447 457.346 689.196 466.783C725.348 504.717 742.167 559.65 740.874 611.286Q740.812 614.177 740.671 617.065Q740.529 619.953 740.308 622.836Q740.086 625.719 739.785 628.594Q739.483 631.47 739.102 634.336Q738.721 637.202 738.261 640.057Q737.801 642.911 737.261 645.752Q736.722 648.593 736.104 651.418Q735.486 654.242 734.79 657.049Q734.094 659.855 733.321 662.641Q732.547 665.427 731.697 668.191Q730.847 670.954 729.92 673.693Q728.993 676.432 727.991 679.144Q726.989 681.857 725.912 684.54Q724.835 687.223 723.684 689.876Q722.532 692.528 721.308 695.148Q720.084 697.767 718.788 700.352C714.668 708.367 709.621 715.69 705.129 723.463C694.465 737.07 684.956 750.283 670.614 760.349C668.215 759.303 665.652 758.469 663.197 757.554C635.644 746.212 609.083 733.51 583.611 717.968C563.192 704.836 543.855 690.44 525.993 673.981C521.508 669.848 516.377 665.485 512.758 660.559C512.887 654.982 513.737 607.37 512.395 604.701L513.134 604.391C512.538 594.108 512.998 583.592 512.997 573.279L513.058 515.784C531.724 514.366 548.644 510.734 565.698 502.86C597.265 488.287 628.009 459.805 640.175 426.832C645.037 415.04 648.903 398.894 647.142 386.17C643.669 356.259 633.61 335.933 610.352 316.704Z"/>
	<path fill="#261F31" transform="scale(0.672852 0.672852)" d="M610.352 316.704C613.606 312.392 617.572 308.3 621.078 304.142C638.533 321.461 652.566 340.266 658.832 364.499C667.384 407.717 654.522 442.174 630.898 477.503C604.789 516.547 573.415 550.788 538.975 582.536C530.822 590.052 522.638 598.611 513.134 604.391C512.538 594.108 512.998 583.592 512.997 573.279L513.058 515.784C531.724 514.366 548.644 510.734 565.698 502.86C597.265 488.287 628.009 459.805 640.175 426.832C645.037 415.04 648.903 398.894 647.142 386.17C643.669 356.259 633.61 335.933 610.352 316.704Z"/>
	<path fill="#601D3A" transform="scale(0.672852 0.672852)" d="M689.196 466.783C725.348 504.717 742.167 559.65 740.874 611.286Q740.812 614.177 740.671 617.065Q740.529 619.953 740.308 622.836Q740.086 625.719 739.785 628.594Q739.483 631.47 739.102 634.336Q738.721 637.202 738.261 640.057Q737.801 642.911 737.261 645.752Q736.722 648.593 736.104 651.418Q735.486 654.242 734.79 657.049Q734.094 659.855 733.321 662.641Q732.547 665.427 731.697 668.191Q730.847 670.954 729.92 673.693Q728.993 676.432 727.991 679.144Q726.989 681.857 725.912 684.54Q724.835 687.223 723.684 689.876Q722.532 692.528 721.308 695.148Q720.084 697.767 718.788 700.352C714.668 708.367 709.621 715.69 705.129 723.463C694.465 737.07 684.956 750.283 670.614 760.349C668.215 759.303 665.652 758.469 663.197 757.554C635.644 746.212 609.083 733.51 583.611 717.968C581.494 694.389 589.878 667.734 599.194 646.231Q599.876 644.685 600.59 643.154Q601.303 641.623 602.049 640.107Q602.795 638.591 603.572 637.091Q604.349 635.591 605.157 634.108Q605.965 632.624 606.804 631.158Q607.643 629.692 608.512 628.243Q609.382 626.795 610.281 625.365Q611.18 623.935 612.109 622.524Q613.038 621.113 613.997 619.721Q614.955 618.33 615.942 616.959Q616.929 615.588 617.944 614.238Q618.96 612.888 620.003 611.559Q621.047 610.23 622.117 608.924Q623.188 607.617 624.286 606.333Q625.384 605.049 626.508 603.788Q627.633 602.528 628.783 601.291Q629.934 600.053 631.11 598.841Q632.286 597.628 633.487 596.44Q634.688 595.252 635.913 594.089Q637.139 592.926 638.388 591.789Q639.638 590.652 640.911 589.542Q642.184 588.431 643.48 587.347Q644.776 586.264 646.094 585.207Q647.412 584.151 648.752 583.122Q650.092 582.093 651.453 581.092Q652.814 580.092 654.196 579.12Q655.577 578.148 656.979 577.204Q658.381 576.261 659.802 575.348Q661.223 574.434 662.663 573.551Q664.102 572.667 665.56 571.813Q667.018 570.96 668.493 570.137Q669.969 569.314 671.461 568.522C680.115 563.971 689.178 560.758 698.241 557.17C695.596 549.483 692.214 542.087 690.571 534.076C687.798 520.551 686.882 480.104 689.196 466.783Z"/>
</svg>
