<?xml version="1.0" encoding="utf-8" ?>
<svg xmlns="http://www.w3.org/2000/svg" xmlns:xlink="http://www.w3.org/1999/xlink" width="689" height="689">
	<path fill="#EF3268" transform="scale(0.672852 0.672852)" d="M0 0L1024 0L1024 499.858L1024 1024L451.051 1024L0 1024L0 0Z"/>
	<path fill="#BB0447" transform="scale(0.672852 0.672852)" d="M179.352 306.614C180.551 305.919 182.329 304.508 183.662 304.66C184.573 312.247 184.03 320.335 184.069 327.996C176.605 328.042 168.428 328.761 161.057 327.772C160.166 326.857 160.187 326.686 160.269 325.329C160.309 324.665 160.526 323.896 160.663 323.254C166.395 322.305 173.084 322.922 178.973 322.522C179.032 317.218 179.038 311.91 179.352 306.614Z"/>
	<path fill="#F6F3F6" transform="scale(0.672852 0.672852)" d="M157.832 301.507C163.912 301.505 173.908 300.648 179.514 301.701L179.352 306.614C179.038 311.91 179.032 317.218 178.973 322.522C173.084 322.922 166.395 322.305 160.663 323.254C159.874 323.303 159.331 323.236 158.57 323.022C156.584 318.952 157.827 306.661 157.832 301.507Z"/>
	<path fill="#FD9B4D" transform="scale(0.672852 0.672852)" d="M203.406 479.869C204.815 481.905 206.071 484.593 207.632 486.445C211.553 493.196 216.162 499.559 220.291 506.193C227.12 517.165 233.573 528.405 240.909 539.045C233.085 550.94 225.38 563.003 219.039 575.77C187.867 545.59 154.676 517.583 123.298 487.652C134.334 486.506 145.466 486.017 156.525 485.029Q180.002 482.78 203.406 479.869Z"/>
	<path fill="#699D61" transform="scale(0.672852 0.672852)" d="M329.928 362.878C329.244 387.83 329.7 412.956 329.918 437.922L329.931 457.255C314.862 464.523 301.314 475.531 288.629 486.335C282.82 491.625 270.907 501.152 266.874 507.212C262.328 511.994 257.885 516.813 253.84 522.033C249.501 527.633 245.491 533.665 240.909 539.045C233.573 528.405 227.12 517.165 220.291 506.193C216.162 499.559 211.553 493.196 207.632 486.445C206.071 484.593 204.815 481.905 203.406 479.869C194.015 466.188 185.333 452.127 176.548 438.058C167.307 424.236 158.725 409.972 149.63 396.053C142.376 384.951 134.485 374.151 127.636 362.805C152.266 363.218 176.936 362.97 201.57 362.984C216.272 363.451 231.135 362.912 245.854 362.934Q287.891 363.159 329.928 362.878Z"/>
	<path fill="#8EB45F" transform="scale(0.672852 0.672852)" d="M176.548 438.058C205.293 437.69 234.063 438.008 262.812 437.975C285.147 437.949 307.59 437.462 329.918 437.922L329.931 457.255C314.862 464.523 301.314 475.531 288.629 486.335C282.82 491.625 270.907 501.152 266.874 507.212C262.328 511.994 257.885 516.813 253.84 522.033C249.501 527.633 245.491 533.665 240.909 539.045C233.573 528.405 227.12 517.165 220.291 506.193C216.162 499.559 211.553 493.196 207.632 486.445C206.071 484.593 204.815 481.905 203.406 479.869C194.015 466.188 185.333 452.127 176.548 438.058Z"/>
	<path fill="#699D61" transform="scale(0.672852 0.672852)" d="M207.632 486.445Q248.131 486.625 288.629 486.335C282.82 491.625 270.907 501.152 266.874 507.212C262.328 511.994 257.885 516.813 253.84 522.033C249.501 527.633 245.491 533.665 240.909 539.045C233.573 528.405 227.12 517.165 220.291 506.193C216.162 499.559 211.553 493.196 207.632 486.445Z"/>
	<path fill="#433655" transform="scale(0.672852 0.672852)" d="M288.629 486.335C301.314 475.531 314.862 464.523 329.931 457.255Q329.701 510.088 328.482 562.908Q327.844 610.541 328.37 658.176L328.345 669.097C328.768 686.5 328.605 704.098 328.243 721.504C338.242 732.779 349.184 743.314 359.596 754.213C366.129 761.051 372.469 769.299 379.854 775.118Q380.095 814.862 379.922 854.607C379.832 860.554 380.172 899.978 379.487 902.312C372.329 901.316 364.789 898.083 358.057 895.39Q345.6 890.521 333.602 884.61Q321.605 878.699 310.153 871.789C303.114 867.464 296.474 862.57 289.513 858.133C280.452 850.304 271.216 842.562 262.829 834.002C241.385 812.113 223.473 784.422 212.228 755.917Q211.405 753.79 210.625 751.647Q209.845 749.505 209.108 747.347Q208.371 745.189 207.678 743.017Q206.984 740.845 206.334 738.659Q205.684 736.473 205.077 734.275Q204.471 732.077 203.909 729.867Q203.347 727.657 202.829 725.437Q202.311 723.216 201.837 720.986Q201.364 718.755 200.935 716.515Q200.507 714.276 200.123 712.028Q199.739 709.78 199.4 707.525Q199.061 705.27 198.767 703.009Q198.474 700.748 198.225 698.481Q197.977 696.214 197.774 693.943Q197.571 691.672 197.413 689.397Q197.256 687.122 197.143 684.845Q197.031 682.567 196.965 680.288Q196.898 678.009 196.877 675.729Q196.856 673.448 196.881 671.168Q196.906 668.888 196.976 666.609Q197.046 664.33 197.162 662.052Q197.278 659.775 197.439 657.501Q197.6 655.226 197.807 652.955Q198.014 650.684 198.266 648.418Q198.518 646.152 198.815 643.891Q199.113 641.63 199.455 639.376Q199.798 637.121 200.185 634.874Q200.573 632.627 201.005 630.388Q201.437 628.149 201.914 625.92Q202.391 623.69 202.913 621.47Q203.435 619.25 204 617.041Q204.566 614.832 205.176 612.635C208.768 599.897 213.765 587.883 219.039 575.77C225.38 563.003 233.085 550.94 240.909 539.045C245.491 533.665 249.501 527.633 253.84 522.033C257.885 516.813 262.328 511.994 266.874 507.212C270.907 501.152 282.82 491.625 288.629 486.335Z"/>
	<path fill="#331B3E" transform="scale(0.672852 0.672852)" d="M328.482 562.908Q327.844 610.541 328.37 658.176L328.345 669.097C327.177 672.494 328.017 714.274 328.023 721.36C324.782 717.042 321.091 713.037 317.696 708.834C298.893 685.554 289.108 657.285 292.396 627.288C295.122 602.415 309.064 578.503 328.482 562.908Z"/>
	<path fill="#331B3E" transform="scale(0.672852 0.672852)" d="M266.874 507.212C266.861 507.44 266.856 507.667 266.835 507.894C266.537 511.186 260.156 520.522 258.368 523.852Q253.844 532.083 249.975 540.64Q246.106 549.198 242.914 558.031C236.553 575.119 233.202 592.353 231.235 610.442C224.725 670.319 239.015 731.215 275.67 779.63C298.089 809.24 327.369 831.349 360.92 846.967C366.056 849.358 373.845 853.599 379.304 854.543C379.508 854.579 379.716 854.586 379.922 854.607C379.832 860.554 380.172 899.978 379.487 902.312C372.329 901.316 364.789 898.083 358.057 895.39Q345.6 890.521 333.602 884.61Q321.605 878.699 310.153 871.789C303.114 867.464 296.474 862.57 289.513 858.133C280.452 850.304 271.216 842.562 262.829 834.002C241.385 812.113 223.473 784.422 212.228 755.917Q211.405 753.79 210.625 751.647Q209.845 749.505 209.108 747.347Q208.371 745.189 207.678 743.017Q206.984 740.845 206.334 738.659Q205.684 736.473 205.077 734.275Q204.471 732.077 203.909 729.867Q203.347 727.657 202.829 725.437Q202.311 723.216 201.837 720.986Q201.364 718.755 200.935 716.515Q200.507 714.276 200.123 712.028Q199.739 709.78 199.4 707.525Q199.061 705.27 198.767 703.009Q198.474 700.748 198.225 698.481Q197.977 696.214 197.774 693.943Q197.571 691.672 197.413 689.397Q197.256 687.122 197.143 684.845Q197.031 682.567 196.965 680.288Q196.898 678.009 196.877 675.729Q196.856 673.448 196.881 671.168Q196.906 668.888 196.976 666.609Q197.046 664.33 197.162 662.052Q197.278 659.775 197.439 657.501Q197.6 655.226 197.807 652.955Q198.014 650.684 198.266 648.418Q198.518 646.152 198.815 643.891Q199.113 641.63 199.455 639.376Q199.798 637.121 200.185 634.874Q200.573 632.627 201.005 630.388Q201.437 628.149 201.914 625.92Q202.391 623.69 202.913 621.47Q203.435 619.25 204 617.041Q204.566 614.832 205.176 612.635C208.768 599.897 213.765 587.883 219.039 575.77C225.38 563.003 233.085 550.94 240.909 539.045C245.491 533.665 249.501 527.633 253.84 522.033C257.885 516.813 262.328 511.994 266.874 507.212Z"/>
	<path fill="#FD9B4D" transform="scale(0.672852 0.672852)" d="M201.57 362.984C204.098 350.55 210.196 337.446 215.626 326.001C232.283 290.894 250.375 261.497 276.137 232.187Q278.679 229.275 281.292 226.427Q283.905 223.578 286.587 220.795Q289.269 218.011 292.018 215.295Q294.768 212.578 297.583 209.929Q300.399 207.281 303.278 204.702Q306.158 202.124 309.1 199.616Q312.042 197.109 315.044 194.675Q318.047 192.241 321.108 189.881Q324.169 187.521 327.288 185.237Q330.406 182.953 333.58 180.746Q336.753 178.54 339.98 176.412Q343.207 174.283 346.485 172.235Q349.763 170.187 353.09 168.219Q356.417 166.252 359.792 164.367Q363.166 162.482 366.586 160.68Q370.006 158.879 373.469 157.162Q376.932 155.444 380.436 153.813Q383.94 152.181 387.483 150.636Q391.026 149.091 394.606 147.633Q398.186 146.175 401.8 144.806Q405.415 143.436 409.062 142.156Q412.709 140.875 416.387 139.685Q420.064 138.495 423.77 137.395Q427.475 136.295 431.207 135.286Q434.938 134.278 438.693 133.361Q442.448 132.444 446.225 131.62Q450.001 130.796 453.797 130.065Q457.592 129.333 461.405 128.695Q465.217 128.057 469.044 127.513Q472.871 126.969 476.71 126.519Q480.549 126.069 484.398 125.713Q488.246 125.357 492.103 125.096Q495.7 124.854 499.302 124.694Q502.904 124.533 506.509 124.454Q510.113 124.375 513.719 124.378Q517.324 124.381 520.929 124.465Q524.534 124.549 528.135 124.715Q531.737 124.881 535.334 125.128Q538.931 125.375 542.521 125.704Q546.112 126.033 549.694 126.442Q553.276 126.852 556.848 127.343Q560.42 127.834 563.98 128.405Q567.54 128.976 571.086 129.628Q574.632 130.28 578.163 131.012Q581.693 131.744 585.206 132.556Q588.719 133.367 592.213 134.258Q595.707 135.149 599.179 136.119Q602.652 137.089 606.102 138.137Q609.551 139.185 612.977 140.311Q616.402 141.437 619.801 142.64Q623.199 143.843 626.57 145.123Q629.941 146.403 633.282 147.758Q636.623 149.114 639.932 150.545Q643.242 151.976 646.518 153.481Q649.794 154.987 653.035 156.566Q656.276 158.145 659.481 159.798Q662.686 161.45 665.852 163.174Q669.019 164.898 672.146 166.694Q675.272 168.489 678.357 170.355Q681.443 172.221 684.485 174.156Q687.527 176.091 690.525 178.095Q693.522 180.098 696.474 182.169Q699.425 184.24 702.329 186.377Q705.233 188.514 708.088 190.716C715.898 196.733 723.589 202.844 730.626 209.766C735.085 214.152 739.033 219.271 743.738 223.362C743.841 223.452 743.946 223.54 744.05 223.628C750.452 230.944 757.621 237.996 763.345 245.839C746.521 261.374 727.841 275.126 710.123 289.632C703.15 295.341 695.696 300.907 689.406 307.354L688.134 303.058C684.238 297.131 681.813 290.319 677.752 284.364C672.203 276.227 651.222 255.261 643.378 249.078C640.535 246.838 637.381 244.883 634.042 243.471C631.894 242.562 627.321 240.78 625.144 241.667C610.172 233.83 595.614 232.515 578.949 232.352C547.468 233.145 538.762 244.74 512.475 252.881C503.369 250.168 495.266 245.48 486.543 241.84C458.774 230.251 432.402 228.632 404.003 239.229C400.453 239.031 396.669 240.594 393.359 241.743C379.404 246.586 365.059 253.71 354.038 263.638C347.345 269.668 341.453 277.02 337.76 285.277C336.164 288.846 334.923 292.753 332.931 296.113C330.077 308.055 329.457 319.052 330.028 331.304C328.948 341.542 330.161 352.524 329.928 362.878Q287.891 363.159 245.854 362.934C231.135 362.912 216.272 363.451 201.57 362.984Z"/>
	<path fill="#EF3268" transform="scale(0.672852 0.672852)" d="M437.369 176.354C444.217 172.483 452.481 170.112 460.063 168.043C492.03 159.32 526.504 158.185 558.563 167.087C604.233 179.769 645.484 209.545 668.942 251.161C676.155 263.958 688.001 288.949 688.134 303.058C684.238 297.131 681.813 290.319 677.752 284.364C672.203 276.227 651.222 255.261 643.378 249.078C640.535 246.838 637.381 244.883 634.042 243.471C631.894 242.562 627.321 240.78 625.144 241.667C610.172 233.83 595.614 232.515 578.949 232.352C547.468 233.145 538.762 244.74 512.475 252.881C503.369 250.168 495.266 245.48 486.543 241.84C458.774 230.251 432.402 228.632 404.003 239.229C400.453 239.031 396.669 240.594 393.359 241.743C379.404 246.586 365.059 253.71 354.038 263.638C347.345 269.668 341.453 277.02 337.76 285.277C336.164 288.846 334.923 292.753 332.931 296.113C333.481 291.36 335.087 286.621 336.564 282.081C342.981 262.361 352.705 245.006 366.033 229.139C384.315 205.995 410.32 187.755 437.369 176.354Z"/>
	<path fill="#871D51" transform="scale(0.672852 0.672852)" d="M437.369 176.354L437.465 176.903C431.244 180.627 424.241 183.265 417.869 186.805C402.858 195.145 388.747 206.574 376.736 218.763L376.533 219.773L377.529 221.047C378.634 220.733 379.195 220.212 380.083 219.512C393.315 209.065 424.253 197.813 440.795 199.481C480.594 197.348 529.098 208.171 565.224 224.448C568.808 226.063 576.681 228.8 579.346 231.208C579.464 231.314 579.561 231.44 579.668 231.557C579.437 231.83 579.242 232.147 578.949 232.352C547.468 233.145 538.762 244.74 512.475 252.881C503.369 250.168 495.266 245.48 486.543 241.84C458.774 230.251 432.402 228.632 404.003 239.229C400.453 239.031 396.669 240.594 393.359 241.743C379.404 246.586 365.059 253.71 354.038 263.638C347.345 269.668 341.453 277.02 337.76 285.277C336.164 288.846 334.923 292.753 332.931 296.113C333.481 291.36 335.087 286.621 336.564 282.081C342.981 262.361 352.705 245.006 366.033 229.139C384.315 205.995 410.32 187.755 437.369 176.354Z"/>
	<defs>
		<linearGradient id="gradient_0" gradientUnits="userSpaceOnUse" x1="360.00394" y1="284.06549" x2="646.18341" y2="384.59998">
			<stop offset="0" stop-color="#FEE6CC"/>
			<stop offset="1" stop-color="#FEFCEA"/>
		</linearGradient>
	</defs>
	<path fill="url(#gradient_0)" transform="scale(0.672852 0.672852)" d="M404.003 239.229C432.402 228.632 458.774 230.251 486.543 241.84C495.266 245.48 503.369 250.168 512.475 252.881C538.762 244.74 547.468 233.145 578.949 232.352C595.614 232.515 610.172 233.83 625.144 241.667C627.321 240.78 631.894 242.562 634.042 243.471C637.381 244.883 640.535 246.838 643.378 249.078C651.222 255.261 672.203 276.227 677.752 284.364C681.813 290.319 684.238 297.131 688.134 303.058L689.406 307.354Q690.213 310.567 690.977 313.79C690.895 314.096 690.808 314.401 690.731 314.709C689.796 318.435 690.2 323.208 690.034 327.075Q689.877 330.182 689.489 333.268Q689.101 336.354 688.485 339.403Q687.869 342.452 687.028 345.446Q686.187 348.441 685.126 351.365C682.128 359.412 677.783 367.722 672.634 374.637C665.113 384.737 654.879 392.935 646.035 401.847C635.509 412.456 625.175 423.203 614.382 433.55C610.5 437.271 606.549 441.661 602.248 444.86C597.601 450.45 591.793 455.551 586.622 460.698C579.181 468.104 571.842 476.455 563.439 482.73C557.986 486.803 552.331 489.938 545.926 492.196L546.584 493.226C539.023 501.297 522.92 511.886 513.66 518.699L455.206 562.191L361.933 633.154L339.68 650.113C336.139 652.785 332.3 656.185 328.37 658.176Q327.844 610.542 328.482 562.908Q329.701 510.088 329.931 457.255L329.918 437.922C329.7 412.956 329.244 387.83 329.928 362.878C330.161 352.524 328.948 341.542 330.028 331.304C329.457 319.052 330.077 308.055 332.931 296.113C334.923 292.753 336.164 288.846 337.76 285.277C341.453 277.02 347.345 269.668 354.038 263.638C365.059 253.71 379.404 246.586 393.359 241.743C396.669 240.594 400.453 239.031 404.003 239.229Z"/>
	<path fill="#F2BFA0" transform="scale(0.672852 0.672852)" d="M465.191 341.048L530.938 341.411C540.463 341.412 550.232 341.845 559.732 341.326C558.643 343.632 557.589 345.969 556.391 348.219C550.822 358.68 540.902 364.676 529.814 368.075C515.672 372.412 498.136 371.775 484.989 364.625C474.987 359.186 468.442 352.009 465.191 341.048Z"/>
	<path fill="#331B3E" transform="scale(0.672852 0.672852)" d="M511.215 333.121C503.231 330.334 486.583 326.218 482.381 318.262C481.357 316.322 481.388 314.394 482.025 312.321C483.031 309.05 485.815 306.721 488.79 305.258C500.434 299.53 519.384 300.449 531.348 304.777C535.276 306.198 540.449 308.541 542.292 312.515C543.02 314.086 543.039 315.688 542.373 317.287C539.731 323.635 527.474 328.778 521.424 330.947C519.352 331.689 517.241 332.315 515.162 333.038C525.129 333.469 535.178 333.116 545.153 333.032C548.95 332.999 553.247 332.562 556.981 333.07C558.097 333.221 558.528 333.459 559.316 334.273C560.399 335.392 560.598 336.887 560.522 338.378C560.469 339.412 560.134 340.38 559.732 341.326C550.232 341.845 540.463 341.412 530.938 341.411L465.191 341.048C464.314 339.478 463.605 337.998 464.259 336.153C464.674 334.983 465.56 334.238 466.66 333.732C470.15 332.125 504.285 333.139 511.215 333.121Z"/>
	<defs>
		<linearGradient id="gradient_1" gradientUnits="userSpaceOnUse" x1="579.38623" y1="349.1835" x2="689.17297" y2="309.51376">
			<stop offset="0" stop-color="#420334"/>
			<stop offset="1" stop-color="#903265"/>
		</linearGradient>
	</defs>
	<path fill="url(#gradient_1)" transform="scale(0.672852 0.672852)" d="M625.144 241.667C627.321 240.78 631.894 242.562 634.042 243.471C637.381 244.883 640.535 246.838 643.378 249.078C651.222 255.261 672.203 276.227 677.752 284.364C681.813 290.319 684.238 297.131 688.134 303.058L689.406 307.354Q690.213 310.567 690.977 313.79C690.895 314.096 690.808 314.401 690.731 314.709C689.796 318.435 690.2 323.208 690.034 327.075Q689.877 330.182 689.489 333.268Q689.101 336.354 688.485 339.403Q687.869 342.452 687.028 345.446Q686.187 348.441 685.126 351.365C682.128 359.412 677.783 367.722 672.634 374.637C665.113 384.737 654.879 392.935 646.035 401.847C635.509 412.456 625.175 423.203 614.382 433.55C610.5 437.271 606.549 441.661 602.248 444.86C602.26 440.413 622.413 428.261 623.663 421.525Q623.102 421.583 622.54 421.624C623.156 416.58 620.741 419.563 618.864 415.613C615.849 413.861 612.231 415.408 608.975 415.281C607.965 415.242 606.982 415.275 605.972 415.318L605.555 414.884L607.05 412.758L606.61 412.766L607.624 411.788L607.636 411.786C606.471 411.747 605.253 411.804 604.205 411.232C603.21 410.689 602.248 410.141 601.228 409.634C598.623 409.856 593.526 416.531 591.188 418.6L590.128 418.347C596.235 411.296 603.795 404.815 610.47 398.27C620.307 388.624 629.845 378.674 639.696 369.051C646.276 362.622 654.115 356.452 659.173 348.731C668.14 335.045 666.998 311.514 663.507 296.331C658.146 273.014 645.463 254.357 625.144 241.667Z"/>
	<path fill="#6D5178" transform="scale(0.672852 0.672852)" d="M590.207 257.165C599.196 256.019 609.062 258.3 616.696 263.151Q617.493 263.665 618.264 264.218Q619.036 264.771 619.779 265.36Q620.522 265.95 621.236 266.575Q621.95 267.2 622.633 267.859Q623.315 268.518 623.965 269.209Q624.615 269.9 625.23 270.623Q625.845 271.345 626.425 272.096Q627.004 272.847 627.546 273.626Q628.088 274.404 628.592 275.209Q629.096 276.013 629.56 276.84Q630.024 277.668 630.447 278.517Q630.87 279.366 631.251 280.235Q631.632 281.104 631.971 281.99Q632.309 282.876 632.604 283.778Q632.899 284.68 633.15 285.595Q633.401 286.51 633.607 287.436C635.83 297.445 634.283 307.585 628.649 316.201C622.479 325.64 614.289 329.886 603.511 332.204C593.451 333.144 584.086 331.157 575.828 325.169C567.054 318.807 560.334 308.454 558.743 297.669C557.364 288.325 559.663 278.383 565.364 270.81C571.523 262.629 580.251 258.539 590.207 257.165Z"/>
	<path fill="#050714" transform="scale(0.672852 0.672852)" d="M589.343 275.171C593.725 275.051 597.904 275.567 601.662 278.003C605.415 280.435 607.941 284.32 608.862 288.676C609.943 293.792 608.53 299.239 605.567 303.491C602.149 308.395 597.585 310.429 591.869 311.329C587.757 311.465 583.457 310.518 579.955 308.3Q579.583 308.065 579.223 307.812Q578.864 307.559 578.518 307.287Q578.172 307.015 577.84 306.726Q577.509 306.437 577.193 306.13Q576.877 305.824 576.577 305.502Q576.277 305.18 575.995 304.843Q575.712 304.506 575.447 304.155Q575.182 303.804 574.936 303.439Q574.69 303.075 574.463 302.698Q574.236 302.321 574.028 301.933Q573.821 301.545 573.634 301.147Q573.447 300.749 573.281 300.342Q573.115 299.934 572.97 299.519Q572.825 299.104 572.702 298.681Q572.579 298.259 572.478 297.831Q572.377 297.403 572.298 296.97C571.447 292.276 572.674 287.422 575.392 283.534C578.759 278.718 583.674 276.196 589.343 275.171Z"/>
	<path fill="#F6F3F6" transform="scale(0.672852 0.672852)" d="M593.656 278.542C594.866 278.57 596.184 278.613 597.318 279.079C599.162 279.838 600.512 281.356 601.216 283.202C602.008 285.275 601.75 287.587 600.754 289.544C599.6 291.81 598.202 292.412 595.878 293.256C594.678 293.175 593.329 293.068 592.182 292.683C590.324 292.059 588.648 290.564 587.815 288.792C587.007 287.074 587.04 285.119 587.765 283.379C588.904 280.643 591.068 279.65 593.656 278.542Z"/>
	<path fill="#6D5178" transform="scale(0.672852 0.672852)" d="M420.302 256.586C430.654 255.916 439.431 256.835 448.263 262.694C455.866 267.739 461.162 275.116 462.914 284.128C464.909 294.396 462.638 306.557 456.736 315.233C450.525 324.363 440.814 329.944 430.118 331.949C420.978 332.789 411.624 331.462 403.81 326.35C395.633 321.002 389.474 311.668 387.49 302.122C385.471 292.409 388.152 281.985 393.597 273.819C399.907 264.358 409.302 258.81 420.302 256.586Z"/>
	<path fill="#050714" transform="scale(0.672852 0.672852)" d="M447.296 284.501C447.63 284.902 447.544 284.751 447.789 285.261C449.751 289.338 450.091 294.959 448.578 299.231C447.143 303.284 443.989 306.283 440.055 307.924Q439.599 308.112 439.134 308.276Q438.669 308.441 438.196 308.582Q437.724 308.723 437.244 308.84Q436.765 308.957 436.281 309.05Q435.796 309.142 435.308 309.211Q434.819 309.279 434.328 309.322Q433.837 309.366 433.344 309.385Q432.851 309.404 432.358 309.397Q431.865 309.391 431.372 309.361Q430.88 309.33 430.39 309.274Q429.9 309.219 429.413 309.138Q428.927 309.058 428.444 308.954Q427.962 308.849 427.486 308.72Q427.01 308.592 426.541 308.439Q426.072 308.287 425.611 308.111Q425.15 307.935 424.699 307.736C420.773 305.978 417.582 302.892 416.117 298.804C414.372 293.936 415.308 288.041 417.603 283.508Q417.933 282.859 418.327 282.247Q418.72 281.634 419.173 281.063Q419.625 280.493 420.132 279.97Q420.639 279.448 421.195 278.978Q421.752 278.509 422.352 278.097Q422.952 277.685 423.591 277.335Q424.229 276.985 424.899 276.7Q425.569 276.415 426.264 276.198C431.36 274.555 436.707 275.663 441.337 278.101C444.521 279.952 445.712 281.188 447.296 284.501Z"/>
	<path fill="#F6F3F6" transform="scale(0.672852 0.672852)" d="M441.337 278.101C444.521 279.952 445.712 281.188 447.296 284.501C447.113 285.516 446.929 286.557 446.516 287.509C445.747 289.281 444.388 290.735 442.524 291.347C440.685 291.951 438.611 291.541 436.97 290.573C435.288 289.58 433.908 287.906 433.443 285.99C433.062 284.417 433.378 283.074 434.242 281.735C435.756 279.389 438.819 278.664 441.337 278.101Z"/>
	<path fill="#331B3E" transform="scale(0.672852 0.672852)" d="M332.931 296.113C334.923 292.753 336.164 288.846 337.76 285.277C341.453 277.02 347.345 269.668 354.038 263.638C365.059 253.71 379.404 246.586 393.359 241.743C396.669 240.594 400.453 239.031 404.003 239.229C383.642 248.882 367.024 262.648 359.317 284.503C352.645 303.424 353.291 323.819 362.164 341.931Q364.32 346.337 367.046 350.415Q369.773 354.493 373.02 358.17C380.54 366.772 389.137 374.632 397.261 382.668L439.531 424.444C450.268 435.091 459.871 447.351 471.653 456.872Q473.685 458.505 475.855 459.949Q478.025 461.394 480.315 462.638Q482.605 463.883 484.997 464.918Q487.39 465.953 489.865 466.77C506.451 472.402 525.28 470.569 540.873 462.789C554.89 455.795 568.75 439.607 579.837 428.307C582.893 425.192 586.514 420.762 590.128 418.347L591.188 418.6C593.526 416.531 598.623 409.856 601.228 409.634C602.248 410.141 603.21 410.689 604.205 411.232C605.253 411.804 606.471 411.747 607.636 411.786L607.624 411.788L606.61 412.766L607.05 412.758L605.555 414.884L605.972 415.318C606.982 415.275 607.965 415.242 608.975 415.281C612.231 415.408 615.849 413.861 618.864 415.613C620.741 419.563 623.156 416.58 622.54 421.624Q623.102 421.583 623.663 421.525C622.413 428.261 602.26 440.413 602.248 444.86C597.601 450.45 591.793 455.551 586.622 460.698C579.181 468.104 571.842 476.455 563.439 482.73C557.986 486.803 552.331 489.938 545.926 492.196C542.264 493.512 538.556 494.804 534.806 495.842C512.29 502.07 487.266 499.765 466.815 488.133Q463.249 486.135 459.924 483.758Q456.599 481.381 453.554 478.654C442.519 468.723 432.274 457.638 421.843 447.08C407.309 432.369 392.574 417.876 378.169 403.035C367.138 391.669 351.614 377.97 342.878 365.258C335.521 354.552 333.377 343.537 330.028 331.304C329.457 319.052 330.077 308.055 332.931 296.113Z"/>
	<path fill="#871D51" transform="scale(0.672852 0.672852)" d="M330.028 331.304C333.377 343.537 335.521 354.552 342.878 365.258C351.614 377.97 367.138 391.669 378.169 403.035C392.574 417.876 407.309 432.369 421.843 447.08C432.274 457.638 442.519 468.723 453.554 478.654Q456.599 481.381 459.924 483.758Q463.249 486.135 466.815 488.133C487.266 499.765 512.29 502.07 534.806 495.842C538.556 494.804 542.264 493.512 545.926 492.196L546.584 493.226C539.023 501.297 522.92 511.886 513.66 518.699L455.206 562.191L361.933 633.154L339.68 650.113C336.139 652.785 332.3 656.185 328.37 658.176Q327.844 610.542 328.482 562.908Q329.701 510.088 329.931 457.255L329.918 437.922C329.7 412.956 329.244 387.83 329.928 362.878C330.161 352.524 328.948 341.542 330.028 331.304Z"/>
	<path fill="#BB0447" transform="scale(0.672852 0.672852)" d="M744.05 223.628C750.118 225.515 757.226 233.828 761.826 238.206C774.546 250.311 786.657 263.064 799.159 275.394L920.516 396.741L1000.23 476.334C1008.02 484.238 1016.54 491.661 1024 499.858L1024 1024L451.051 1024L351.493 922.733C335.939 907.139 319.795 892.243 304.631 876.259C300.882 872.307 290.895 863.082 289.513 858.133C296.474 862.57 303.114 867.464 310.153 871.789Q321.605 878.699 333.602 884.61Q345.6 890.521 358.057 895.39C364.789 898.083 372.329 901.316 379.487 902.312C380.172 899.978 379.832 860.554 379.922 854.607Q380.095 814.862 379.854 775.118C372.469 769.299 366.129 761.051 359.596 754.213C349.184 743.314 338.242 732.779 328.243 721.504C328.605 704.098 328.768 686.5 328.345 669.097L328.37 658.176C332.3 656.185 336.139 652.785 339.68 650.113L361.933 633.154L455.206 562.191L513.66 518.699C522.92 511.886 539.023 501.297 546.584 493.226L545.926 492.196C552.331 489.938 557.986 486.803 563.439 482.73C571.842 476.455 579.181 468.104 586.622 460.698C591.793 455.551 597.601 450.45 602.248 444.86C606.549 441.661 610.5 437.271 614.382 433.55C625.175 423.203 635.509 412.456 646.035 401.847C654.879 392.935 665.113 384.737 672.634 374.637C677.783 367.722 682.128 359.412 685.126 351.365Q686.187 348.441 687.028 345.446Q687.869 342.452 688.485 339.403Q689.101 336.354 689.489 333.268Q689.877 330.182 690.034 327.075C690.2 323.208 689.796 318.435 690.731 314.709C690.808 314.401 690.895 314.096 690.977 313.79Q690.213 310.567 689.406 307.354C695.696 300.907 703.15 295.341 710.123 289.632C727.841 275.126 746.521 261.374 763.345 245.839C757.621 237.996 750.452 230.944 744.05 223.628Z"/>
	<path fill="#F6F3F6" transform="scale(0.672852 0.672852)" d="M886.765 491.799C887.271 492.272 887.126 492.061 887.436 492.61C893.088 502.624 897.775 507.26 908.206 512.352C895.739 518.85 892.983 521.803 886.758 534.131C885.289 532.607 884.236 529.458 883.248 527.508C879.083 519.289 873.257 516.736 865.764 512.459C876.337 508.383 881.846 501.703 886.765 491.799Z"/>
	<path fill="#699D61" transform="scale(0.672852 0.672852)" d="M811.647 567.018C838.458 567.03 865.532 566.187 892.312 567.115C887.406 573.033 881.73 578.442 876.371 583.96Q858.476 602.402 840.154 620.421C833.988 626.52 827.377 632.434 821.511 638.806C816.712 611.79 809.984 592.039 798.193 567.341C802.64 566.943 807.183 567.066 811.647 567.018Z"/>
	<path fill="#331B3E" transform="scale(0.672852 0.672852)" d="M760.651 514.021Q768.746 522.808 775.96 532.331Q783.175 541.855 789.442 552.026C792.53 557.038 795.141 562.315 798.193 567.341C809.984 592.039 816.712 611.79 821.511 638.806C829.635 702.453 816.832 765.304 777.284 816.829C750.915 851.184 713.106 878.501 672.812 893.987C664.68 897.112 655.979 900.276 647.398 901.854L646.682 901.464C645.171 896.306 646.229 858.257 646.408 850.28C649.253 848.807 652.414 847.697 655.365 846.431C709.875 823.064 760.374 781.32 782.722 725.171C806.046 666.572 805.27 608.326 780.313 550.287C776.488 541.392 771.518 533.067 766.672 524.7C764.718 521.326 762.3 517.987 760.802 514.4C760.75 514.275 760.701 514.148 760.651 514.021Z"/>
	<path fill="#166570" transform="scale(0.672852 0.672852)" d="M763.345 245.839C779.113 267.305 793.354 291.32 803.93 315.774C807.481 323.985 810.396 332.365 813.45 340.765C817.532 349.973 820.099 360.265 822.512 370.021Q823.594 374.484 824.555 378.975Q825.516 383.466 826.355 387.982Q827.195 392.497 827.912 397.033Q828.629 401.57 829.223 406.124Q829.817 410.678 830.288 415.246Q830.759 419.815 831.107 424.394Q831.454 428.974 831.677 433.561Q831.901 438.148 832 442.74Q832.1 447.332 832.075 451.924Q832.051 456.517 831.902 461.107Q831.753 465.698 831.481 470.282Q831.208 474.867 830.812 479.442Q830.415 484.018 829.896 488.581Q829.376 493.144 828.733 497.692Q828.09 502.239 827.324 506.767Q826.559 511.296 825.671 515.802Q822.129 532.966 817.073 549.747C815.337 555.494 813.188 561.228 811.647 567.018C807.183 567.066 802.64 566.943 798.193 567.341C795.141 562.315 792.53 557.038 789.442 552.026Q783.175 541.855 775.96 532.331Q768.746 522.808 760.651 514.021C759.637 511.827 757.195 509.557 755.585 507.727C740.428 490.502 715.925 470.227 696.135 458.545C696.112 448.15 696.276 437.714 695.829 427.329C693.496 418.835 693.938 409.218 693.848 400.458L693.545 360.278C693.515 346.169 695.288 327.095 690.977 313.79Q690.213 310.567 689.406 307.354C695.696 300.907 703.15 295.341 710.123 289.632C727.841 275.126 746.521 261.374 763.345 245.839Z"/>
	<path fill="#699D61" transform="scale(0.672852 0.672852)" d="M763.345 245.839C779.113 267.305 793.354 291.32 803.93 315.774C807.481 323.985 810.396 332.365 813.45 340.765L728.608 402.892C719.068 409.987 704.066 419.556 695.829 427.329C693.496 418.835 693.938 409.218 693.848 400.458L693.545 360.278C693.515 346.169 695.288 327.095 690.977 313.79Q690.213 310.567 689.406 307.354C695.696 300.907 703.15 295.341 710.123 289.632C727.841 275.126 746.521 261.374 763.345 245.839Z"/>
	<path fill="#433655" transform="scale(0.672852 0.672852)" d="M696.135 458.545C715.925 470.227 740.428 490.502 755.585 507.727C757.195 509.557 759.637 511.827 760.651 514.021C760.701 514.148 760.75 514.275 760.802 514.4C762.3 517.987 764.718 521.326 766.672 524.7C771.518 533.067 776.488 541.392 780.313 550.287C805.27 608.326 806.046 666.572 782.722 725.171C760.374 781.32 709.875 823.064 655.365 846.431C652.414 847.697 649.253 848.807 646.408 850.28C646.963 831.113 646.338 811.8 646.144 792.621C646.063 784.53 645.065 775.084 646.385 767.134C659.369 759.23 687.623 733.428 696.527 721.628C696.192 698.548 696.749 675.427 696.79 652.344L696.538 560.856C695.959 548.433 696.521 535.736 696.517 523.286L696.135 458.545Z"/>
	<path fill="#331B3E" transform="scale(0.672852 0.672852)" d="M696.538 560.856C708.739 571.153 722.929 596.939 728.525 612.006C731.641 620.396 733.956 629.306 734.68 638.246C737.246 669.926 716.752 698.168 697.062 721.012L696.527 721.628C696.192 698.548 696.749 675.427 696.79 652.344L696.538 560.856Z"/>
	<path fill="#EF3268" transform="scale(0.672852 0.672852)" d="M690.977 313.79C695.288 327.095 693.515 346.169 693.545 360.278L693.848 400.458C693.938 409.218 693.496 418.835 695.829 427.329C696.276 437.714 696.112 448.15 696.135 458.545L696.517 523.286C696.521 535.736 695.959 548.433 696.538 560.856L696.79 652.344C696.749 675.427 696.192 698.548 696.527 721.628C687.623 733.428 659.369 759.23 646.385 767.134C645.065 775.084 646.063 784.53 646.144 792.621C646.338 811.8 646.963 831.113 646.408 850.28C646.229 858.257 645.171 896.306 646.682 901.464L647.398 901.854C641.009 902.512 634.364 902.15 627.939 902.115L596.439 902.034L542.645 902.074C533.731 902.068 524.712 902.344 515.816 901.991L507.514 902.096C493.387 902.149 479.219 902.419 465.097 902.089C459.74 902.599 454.117 902.287 448.726 902.296L419.15 902.345L393.505 902.469C388.88 902.493 384.079 902.815 379.487 902.312C380.172 899.978 379.832 860.554 379.922 854.607Q380.095 814.862 379.854 775.118C372.469 769.299 366.129 761.051 359.596 754.213C349.184 743.314 338.242 732.779 328.243 721.504C328.605 704.098 328.768 686.5 328.345 669.097L328.37 658.176C332.3 656.185 336.139 652.785 339.68 650.113L361.933 633.154L455.206 562.191L513.66 518.699C522.92 511.886 539.023 501.297 546.584 493.226L545.926 492.196C552.331 489.938 557.986 486.803 563.439 482.73C571.842 476.455 579.181 468.104 586.622 460.698C591.793 455.551 597.601 450.45 602.248 444.86C606.549 441.661 610.5 437.271 614.382 433.55C625.175 423.203 635.509 412.456 646.035 401.847C654.879 392.935 665.113 384.737 672.634 374.637C677.783 367.722 682.128 359.412 685.126 351.365Q686.187 348.441 687.028 345.446Q687.869 342.452 688.485 339.403Q689.101 336.354 689.489 333.268Q689.877 330.182 690.034 327.075C690.2 323.208 689.796 318.435 690.731 314.709C690.808 314.401 690.895 314.096 690.977 313.79Z"/>
	<defs>
		<linearGradient id="gradient_2" gradientUnits="userSpaceOnUse" x1="487.86911" y1="890.22687" x2="585.1554" y2="712.95129">
			<stop offset="0" stop-color="#550838"/>
			<stop offset="1" stop-color="#7D2459"/>
		</linearGradient>
	</defs>
	<path fill="url(#gradient_2)" transform="scale(0.672852 0.672852)" d="M456.641 842.17C462.571 833.104 469.137 824.364 475.331 815.465L517.124 755.106L588.286 652.078C597.415 638.851 605.843 625.225 615.19 612.133C614.682 615.695 607.92 623.638 605.633 627.011C597.717 638.687 590.39 650.71 582.212 662.223C578.205 667.863 574.227 673.625 570.148 679.203C566.711 683.903 562.836 688.583 559.947 693.64C557.82 697.364 556.097 702.407 557.243 706.695L559.042 707.319C559.72 709.603 557.861 712.278 558.371 714.868C559.653 721.366 569.737 726.796 574.405 731.012C576.034 732.484 577.326 735.381 579.162 736.354C579.384 736.471 579.644 736.511 579.857 736.643C581.072 737.397 581.001 738.121 581.257 739.42C582.436 736.623 579.798 718.968 582.069 713.974C584.812 707.941 584.284 705.426 589.146 699.631C596.599 690.747 605.698 689.223 616.705 688.561C622.379 688.22 633.69 694.63 637.794 698.707C639.279 700.183 641.784 702.729 641.8 704.94C641.653 704.807 641.502 704.679 641.358 704.542C632.108 695.75 627.543 689.549 613.492 689.683C605.191 689.762 596.829 692.857 591.048 698.922C587.422 702.726 584.249 708.085 583.232 713.271C581.376 722.728 582.397 736.649 582.34 746.535Q582.022 769.09 582.031 791.647C582.021 802.739 582.28 813.9 581.937 824.984C576.487 833.333 568.747 840.803 562.094 848.221C555.704 855.344 549.55 862.668 543.175 869.8C535.799 878.053 528.19 886.098 521.236 894.716C519.61 896.731 516.619 899.636 515.816 901.991L507.514 902.096C502.754 895.462 496.997 889.363 491.628 883.209L469.17 857.231C465.046 852.441 460.013 847.495 456.641 842.17Z"/>
	<path fill="#450737" transform="scale(0.672852 0.672852)" d="M379.854 775.118C380.248 762.636 379.951 750.096 379.919 737.608C379.9 730.163 379.081 721.79 380.887 714.54Q381.169 713.423 381.529 712.329Q381.889 711.235 382.325 710.168Q382.76 709.102 383.27 708.069Q383.78 707.036 384.36 706.041Q384.941 705.046 385.591 704.095Q386.24 703.143 386.954 702.24Q387.669 701.336 388.445 700.485Q389.221 699.634 390.055 698.839C396.013 693.204 404.375 690.419 412.519 690.786Q413.241 690.825 413.96 690.901Q414.679 690.977 415.393 691.088Q416.108 691.2 416.816 691.347Q417.523 691.494 418.223 691.676Q418.923 691.859 419.612 692.076Q420.302 692.293 420.98 692.545Q421.658 692.796 422.322 693.082Q422.986 693.367 423.636 693.685Q424.285 694.003 424.917 694.353Q425.55 694.704 426.164 695.085Q426.778 695.467 427.372 695.879Q427.966 696.29 428.539 696.732Q429.112 697.173 429.662 697.642Q430.212 698.111 430.738 698.607Q431.264 699.104 431.764 699.626Q432.264 700.148 432.738 700.694Q433.413 701.465 434.035 702.28Q434.656 703.095 435.222 703.95Q435.787 704.805 436.293 705.696Q436.799 706.587 437.244 707.51Q437.689 708.434 438.07 709.385Q438.452 710.336 438.768 711.311Q439.085 712.286 439.335 713.28Q439.585 714.273 439.767 715.282C441.458 724.492 440.555 734.847 440.606 744.229L440.932 796.623C440.992 805.645 440.618 814.905 441.279 823.894C446.826 829.659 451.749 835.85 456.641 842.17C460.013 847.495 465.046 852.441 469.17 857.231L491.628 883.209C496.997 889.363 502.754 895.462 507.514 902.096C493.387 902.149 479.219 902.419 465.097 902.089C459.74 902.599 454.117 902.287 448.726 902.296L419.15 902.345L393.505 902.469C388.88 902.493 384.079 902.815 379.487 902.312C380.172 899.978 379.832 860.554 379.922 854.607Q380.095 814.862 379.854 775.118Z"/>
	<path fill="#331B3E" transform="scale(0.672852 0.672852)" d="M441.279 823.894C446.826 829.659 451.749 835.85 456.641 842.17C460.013 847.495 465.046 852.441 469.17 857.231L491.628 883.209C496.997 889.363 502.754 895.462 507.514 902.096C493.387 902.149 479.219 902.419 465.097 902.089C456.805 901.248 448.144 901.987 439.786 901.798C439.595 891.319 440.332 880.749 440.415 870.251C440.484 861.62 439.478 830.454 441.279 823.894Z"/>
	<path fill="#450737" transform="scale(0.672852 0.672852)" d="M581.937 824.984C582.28 813.9 582.021 802.739 582.031 791.647Q582.022 769.09 582.34 746.535C582.397 736.649 581.376 722.728 583.232 713.271C584.249 708.085 587.422 702.726 591.048 698.922C596.829 692.857 605.191 689.762 613.492 689.683C627.543 689.549 632.108 695.75 641.358 704.542C641.502 704.679 641.653 704.807 641.8 704.94C643.573 708.508 644.971 711.707 645.705 715.654C647.009 722.67 646.47 730.195 646.455 737.308L646.385 767.134C645.065 775.084 646.063 784.53 646.144 792.621C646.338 811.8 646.963 831.113 646.408 850.28C646.229 858.257 645.171 896.306 646.682 901.464L647.398 901.854C641.009 902.512 634.364 902.15 627.939 902.115L596.439 902.034L542.645 902.074C533.731 902.068 524.712 902.344 515.816 901.991C516.619 899.636 519.61 896.731 521.236 894.716C528.19 886.098 535.799 878.053 543.175 869.8C549.55 862.668 555.704 855.344 562.094 848.221C568.747 840.803 576.487 833.333 581.937 824.984Z"/>
</svg>
