<?xml version="1.0" encoding="utf-8" ?>
<svg xmlns="http://www.w3.org/2000/svg" xmlns:xlink="http://www.w3.org/1999/xlink" width="689" height="689">
	<path fill="#EF3268" transform="scale(0.672852 0.672852)" d="M0 0L1024 0L1024 548.301L1024 1024L533.668 1024L0 1024L0 0Z"/>
	<path fill="#A20765" transform="scale(0.672852 0.672852)" d="M199.05 338.125C202.5 337.844 205.523 338.174 208.628 339.824C212.579 341.922 215.345 345.657 216.562 349.93Q216.792 350.72 216.942 351.53Q217.091 352.339 217.159 353.159Q217.227 353.979 217.212 354.802Q217.196 355.625 217.099 356.442Q217.001 357.259 216.822 358.063Q216.643 358.866 216.384 359.647Q216.126 360.429 215.79 361.18Q215.454 361.931 215.044 362.645C212.192 367.719 208.025 370.094 202.619 371.599C198.465 371.677 194.996 371.297 191.344 369.134Q190.621 368.709 189.945 368.213Q189.268 367.717 188.645 367.155Q188.022 366.594 187.459 365.972Q186.896 365.351 186.398 364.675Q185.901 364 185.474 363.278Q185.047 362.557 184.695 361.795Q184.342 361.034 184.069 360.241Q183.795 359.448 183.603 358.632Q183.407 357.834 183.293 357.02Q183.18 356.206 183.149 355.385Q183.118 354.564 183.171 353.744Q183.224 352.923 183.359 352.113Q183.495 351.302 183.712 350.51Q183.929 349.717 184.225 348.951Q184.521 348.184 184.894 347.452Q185.266 346.719 185.711 346.028C188.892 341.182 193.664 339.371 199.05 338.125Z"/>
	<path fill="#A72A38" transform="scale(0.672852 0.672852)" d="M821.485 650.17C825.147 649.935 828.638 650.515 831.873 652.326Q832.604 652.742 833.291 653.227Q833.977 653.712 834.613 654.263Q835.249 654.813 835.828 655.422Q836.407 656.032 836.924 656.696Q837.44 657.359 837.889 658.07Q838.339 658.781 838.716 659.532Q839.094 660.283 839.396 661.068Q839.698 661.853 839.922 662.663C841.109 666.868 840.694 671.435 838.537 675.26C835.755 680.191 831.403 682.2 826.167 683.526C821.598 683.582 817.517 683.156 813.635 680.482Q812.955 680.01 812.326 679.473Q811.697 678.936 811.125 678.339Q810.553 677.742 810.043 677.09Q809.533 676.438 809.092 675.739Q808.65 675.04 808.28 674.3Q807.91 673.56 807.616 672.787Q807.322 672.014 807.107 671.215Q806.892 670.416 806.758 669.6C806.01 664.991 807.253 659.937 810.097 656.226C813.122 652.277 816.704 650.781 821.485 650.17Z"/>
	<path fill="#D9775A" transform="scale(0.672852 0.672852)" d="M800.159 178.461Q804.744 182.976 809.131 187.684C803.212 194.633 796.231 200.859 789.883 207.433L738.158 260.273Q728.104 271.029 717.61 281.357C712.715 286.134 707.316 290.78 702.806 295.903C702.051 296.761 701.748 297.283 701.4 298.341L701.067 298.41C698.31 294.811 694.791 291.673 691.493 288.575C699.344 281.054 706.775 273.143 714.397 265.392L755.596 223.593C770.389 208.589 786.28 194.307 800.159 178.461Z"/>
	<path fill="#D9775A" transform="scale(0.672852 0.672852)" d="M838.733 211.042L848.754 221.068C833.657 234.851 819.457 249.72 805.029 264.2C794.862 274.402 784.118 284.319 774.304 294.832L746.962 322.552C743.926 325.609 738.428 329.712 736.375 333.39L736.065 333.369C734.157 330.045 729.342 326.068 726.188 323.926L726.231 323.571C729.99 321.623 758.063 291.329 763.515 285.815L838.733 211.042Z"/>
	<path fill="#D47F4C" transform="scale(0.672852 0.672852)" d="M329.036 719.686C332.829 723.358 337.024 726.924 340.524 730.854C339.006 732.849 337.342 734.259 335.409 735.831Q311.568 758.247 288.569 781.526C266.291 802.693 245.617 825.533 223.245 846.594Q217.708 841.393 212.436 835.923C236.384 813.152 259.376 789.417 282.633 765.945C293.777 754.698 305.683 744.251 316.382 732.556C320.451 728.127 324.779 723.933 329.036 719.686Z"/>
	<defs>
		<linearGradient id="gradient_0" gradientUnits="userSpaceOnUse" x1="284.18839" y1="758.62573" x2="201.61758" y2="730.97443">
			<stop offset="0" stop-color="#FF9737"/>
			<stop offset="1" stop-color="#FC7F4C"/>
		</linearGradient>
	</defs>
	<path fill="url(#gradient_0)" transform="scale(0.672852 0.672852)" d="M300.789 679.214C303.182 683.638 305.655 688.036 307.951 692.51L292.611 707.692C256.779 741.593 222.661 777.384 187.393 811.889C183.86 808.45 180.354 805.011 176.591 801.821C193.502 786.41 209.027 769.856 225.252 753.772C243.877 735.31 263.087 717.209 281.215 698.267C283.759 695.589 286.263 692.639 289.204 690.398C293.487 687.498 296.328 682.323 300.789 679.214Z"/>
	<path fill="#A20765" transform="scale(0.672852 0.672852)" d="M787.398 685.947C791.571 689.173 795.176 693.576 798.847 697.361Q805.547 704.209 812.513 710.786C797.851 724.072 784.432 738.72 770.481 752.737C752.61 770.694 734.296 788.264 716.531 806.31L691.631 831.64C687.097 836.274 682.809 841.445 677.738 845.476C677.67 845.47 677.599 845.478 677.533 845.459C674.541 844.563 655.836 824.802 653.444 820.889C660.622 813.164 668.329 805.974 675.735 798.473Q706.427 766.953 737.732 736.042L768.579 704.597C774.748 698.294 780.729 691.73 787.398 685.947Z"/>
	<path fill="#A20765" transform="scale(0.672852 0.672852)" d="M344.47 177.555C347.926 177.228 351.257 177.179 354.469 178.673C360.287 181.378 370.754 192.021 372.673 198.104C373.529 200.814 373.727 204.558 372.276 207.111C369.084 212.727 360.764 219.574 356.083 224.252L326.958 253.345L271.757 308.497C262.8 317.445 254.032 326.83 244.766 335.441C243.412 336.699 242.288 337.315 240.533 337.874C238.281 337.996 236.008 337.934 233.752 337.936C227.132 334.393 219.279 326.932 214.865 320.782C212.78 317.877 210.982 313.517 211.799 309.865C212.335 307.468 215.538 304.381 217.277 302.597C231.341 288.163 246.038 274.227 260.472 260.16L305.489 215.676L329.998 191.501C334.579 186.934 339.049 181.013 344.47 177.555Z"/>
	<path fill="#F2A123" transform="scale(0.672852 0.672852)" d="M662.318 757.096C665.019 758.127 667.706 759.232 670.489 760.024Q647.483 781.994 624.935 804.434Q593.21 835.011 562.338 866.45C546.615 882.294 529.653 897.359 514.76 913.97C513.899 912.109 513.035 910.271 512.932 908.193C512.643 902.339 513.104 896.285 513.094 890.401L513.031 845.593L512.988 812.243C512.985 806.489 512.3 799.621 513.521 794.006C529.725 794.137 559.573 792.934 574.895 788.763C600.335 784.306 625.126 773.614 648.936 763.929C652.283 762.568 658.099 761.224 660.881 759.095C661.358 758.73 661.942 757.619 662.318 757.096Z"/>
	<path fill="#CE8C21" transform="scale(0.672852 0.672852)" d="M340.524 730.854C386.548 773.607 451.511 793.834 513.521 794.006C512.3 799.621 512.985 806.489 512.988 812.243L513.031 845.593L513.094 890.401C513.104 896.285 512.643 902.339 512.932 908.193C513.035 910.271 513.899 912.109 514.76 913.97L513.671 914.748C511.46 914.254 487.464 888.882 483.728 885.06C447.887 848.393 411.104 812.707 375.084 776.226C361.835 762.807 347.939 749.934 335.409 735.831C337.342 734.259 339.006 732.849 340.524 730.854Z"/>
	<path fill="#F2A123" transform="scale(0.672852 0.672852)" d="M512.339 110.613L644.667 242.028L675.615 272.473C680.115 276.875 688.16 283.475 691.266 288.539C683.144 295.759 674.037 303.406 667.546 312.151Q664.486 306.778 661.095 301.608Q657.704 296.437 653.996 291.489Q650.289 286.541 646.278 281.835Q642.267 277.13 637.97 272.684C605.125 238.444 559.216 220.463 512.155 219.444C513.415 214.136 512.581 194.748 512.601 188.217L512.577 142.431C512.596 131.847 512.927 121.177 512.339 110.613Z"/>
	<path fill="#965443" transform="scale(0.672852 0.672852)" d="M512.155 219.444C559.216 220.463 605.125 238.444 637.97 272.684Q642.267 277.13 646.278 281.835Q650.289 286.541 653.997 291.489Q657.704 296.437 661.095 301.608Q664.486 306.778 667.546 312.151C669.818 316.696 672.4 321.1 674.598 325.676Q678.6 334.494 681.545 343.719Q684.49 352.944 686.337 362.45C687.348 368.305 687.935 374.271 689.009 380.095C679.314 376.847 669.127 368.128 658.692 363.944C657.872 360.064 656.158 355.886 654.754 352.161C647.302 332.392 635.677 318.289 620.81 303.641C619.054 306.461 617.312 308.99 614.975 311.366C613.874 312.486 612.215 313.577 611.336 314.813C610.931 315.381 610.769 316.111 610.589 316.767C590.542 304.997 573.02 299.749 549.803 305.796C535.4 309.548 521.867 318.732 512.217 329.973C511.088 320.733 512.01 307.107 512.042 297.572C512.081 286.119 511.267 274.009 512.232 262.615L511.912 262.512C510.789 254.208 511.006 227.864 512.155 219.444Z"/>
	<path fill="#5F1C3A" transform="scale(0.672852 0.672852)" d="M512.232 262.615C544.763 264.404 573.37 270.335 601.226 288.258C607.822 292.502 614.799 297.32 620.235 302.989C620.435 303.198 620.618 303.424 620.81 303.641C619.054 306.461 617.312 308.99 614.975 311.366C613.874 312.486 612.215 313.577 611.336 314.813C610.931 315.381 610.769 316.111 610.589 316.767C590.542 304.997 573.02 299.749 549.803 305.796C535.4 309.548 521.867 318.732 512.217 329.973C511.088 320.733 512.01 307.107 512.042 297.572C512.081 286.119 511.267 274.009 512.232 262.615Z"/>
	<path fill="#F2A123" transform="scale(0.672852 0.672852)" d="M304.274 503.855C280.032 553.298 273.273 604.109 291.258 656.902Q295.223 668.4 300.789 679.214C296.328 682.323 293.487 687.498 289.204 690.398C284.348 684.649 278.971 679.365 274.05 673.664C272.153 671.978 270.624 670.312 269.053 668.328C264.473 665.252 260.092 659.835 256.137 655.903L224.69 624.303C188.957 588.578 153.567 552.42 114.59 520.207C117.903 519.701 121.482 519.698 124.84 519.386Q140.633 517.919 156.447 516.706C192.596 513.693 228.874 511.427 264.972 507.961C277.943 506.716 291.52 506.501 304.274 503.855Z"/>
	<path fill="#FBF9F7" transform="scale(0.672852 0.672852)" d="M269.053 668.328C268.412 664.796 268.014 662.611 270.184 659.568C271.948 657.095 274.243 654.517 277.427 654.052C279.71 653.72 281.955 654.641 283.726 656.036C286.111 657.916 287.878 660.801 288.232 663.838C288.529 666.382 287.884 669.383 286.284 671.421C284.557 673.622 281.959 674.236 279.29 674.443C277.422 674.587 275.829 674.144 274.05 673.664C272.153 671.978 270.624 670.312 269.053 668.328Z"/>
	<path fill="#FBF9F7" transform="scale(0.672852 0.672852)" d="M231.724 517.044C233.643 517.229 235.613 517.599 237.356 518.46C241.085 520.303 242.516 523.727 243.666 527.487C243.403 528.656 243.134 529.831 242.712 530.955C241.241 534.864 238.847 536.679 235.104 538.281C233.448 538.378 231.905 538.319 230.308 537.804C227.493 536.897 225.04 534.634 223.861 531.933Q223.633 531.422 223.461 530.889Q223.289 530.356 223.175 529.808Q223.06 529.26 223.006 528.702Q222.951 528.145 222.956 527.585Q222.961 527.025 223.025 526.469Q223.09 525.913 223.214 525.367Q223.338 524.821 223.519 524.291Q223.701 523.761 223.938 523.254C225.567 519.774 228.243 518.276 231.724 517.044Z"/>
	<path fill="#8B2B43" transform="scale(0.672852 0.672852)" d="M327.049 469.139C327.075 469.317 327.103 469.495 327.127 469.674C328.006 476.27 327.526 483.378 327.527 490.049C327.532 507.841 326.582 526.21 328.143 543.923C332.389 592.094 354.923 640.277 384.634 677.959C390.653 685.593 397.378 692.622 404.036 699.692C414.645 710.959 425.703 721.612 437.93 731.134C460.326 748.575 485.951 763.399 512.545 773.392C526.476 778.871 540.444 782.825 555.161 785.537C561.555 786.716 568.697 787.049 574.895 788.763C559.573 792.934 529.725 794.137 513.521 794.006C451.511 793.834 386.548 773.607 340.524 730.854C337.024 726.924 332.829 723.358 329.036 719.686C321.471 710.872 314.568 702.07 307.951 692.51C305.655 688.036 303.182 683.638 300.789 679.214Q295.223 668.4 291.258 656.902C273.273 604.109 280.032 553.298 304.274 503.855C310.923 491.689 318.159 479.808 327.049 469.139Z"/>
	<path fill="#FDC333" transform="scale(0.672852 0.672852)" d="M107.696 516.094C107.39 515.687 107.299 515.254 107.144 514.775C108.213 512.39 179.17 442.999 186.89 435.323L430.68 192.051L489.413 133.213C495.452 127.192 506.152 114.842 512.339 110.613C512.927 121.177 512.596 131.847 512.577 142.431L512.601 188.217C512.581 194.748 513.415 214.136 512.155 219.444C463.147 219.414 418.129 236.544 383.199 271.438C353.477 301.129 333.084 338.27 328.238 380.338C326.755 393.206 326.969 406.017 326.979 418.946C326.99 435.611 326.455 452.493 327.049 469.139C318.159 479.808 310.923 491.689 304.274 503.855C291.52 506.501 277.943 506.716 264.972 507.961C228.874 511.427 192.596 513.693 156.447 516.706Q140.633 517.919 124.84 519.386C121.482 519.698 117.903 519.701 114.59 520.207C112.251 518.967 109.972 517.455 107.696 516.094Z"/>
	<path fill="#FBF9F7" transform="scale(0.672852 0.672852)" d="M281.392 418.599C286.438 418.106 291.16 418.725 295.609 421.287Q296.08 421.561 296.536 421.858Q296.993 422.155 297.434 422.474Q297.875 422.793 298.299 423.134Q298.724 423.476 299.13 423.838Q299.537 424.199 299.925 424.581Q300.314 424.963 300.682 425.364Q301.051 425.765 301.399 426.184Q301.747 426.602 302.073 427.038Q302.4 427.474 302.704 427.925Q303.009 428.377 303.29 428.843Q303.572 429.309 303.829 429.789Q304.087 430.269 304.32 430.761Q304.554 431.253 304.762 431.756Q304.97 432.259 305.153 432.772Q305.336 433.285 305.493 433.806Q305.65 434.327 305.781 434.856Q305.912 435.39 306.017 435.93Q306.121 436.47 306.199 437.015Q306.276 437.559 306.327 438.107Q306.377 438.655 306.4 439.204Q306.424 439.754 306.419 440.304Q306.415 440.854 306.384 441.403Q306.352 441.952 306.294 442.499Q306.235 443.046 306.149 443.589Q306.063 444.132 305.951 444.671Q305.838 445.209 305.699 445.741Q305.56 446.273 305.394 446.798Q305.229 447.323 305.037 447.838Q304.846 448.354 304.629 448.859Q304.412 449.365 304.171 449.859Q303.929 450.353 303.663 450.835Q303.397 451.316 303.108 451.784C299.566 457.408 294.387 460.19 288.109 461.692C283.699 462.091 279.973 461.689 275.882 459.781Q275.353 459.534 274.837 459.26Q274.322 458.986 273.821 458.685Q273.321 458.385 272.836 458.059Q272.352 457.733 271.885 457.382Q271.418 457.032 270.97 456.657Q270.522 456.283 270.094 455.886Q269.665 455.489 269.258 455.07Q268.851 454.652 268.466 454.213Q268.082 453.774 267.72 453.315Q267.358 452.857 267.021 452.38Q266.684 451.904 266.371 451.41Q266.059 450.917 265.773 450.408Q265.486 449.899 265.227 449.376Q264.967 448.853 264.735 448.318Q264.503 447.782 264.299 447.235Q264.095 446.688 263.919 446.131C262.23 440.819 262.664 435.28 265.304 430.356C268.831 423.777 274.532 420.666 281.392 418.599Z"/>
	<path fill="#CE8C21" transform="scale(0.672852 0.672852)" d="M691.266 288.539L691.493 288.575C694.791 291.673 698.31 294.811 701.067 298.41L701.4 298.341C706.457 302.819 722.329 318.138 726.231 323.571L726.188 323.926C729.342 326.068 734.157 330.045 736.065 333.369L736.375 333.39C752.736 347.955 767.358 364.738 782.936 380.144L915.91 512.48C894.479 531.861 874.692 553.318 854.371 573.859L760.181 668.786C753.566 675.55 705.881 724.977 702.666 726.444C726.599 693.733 738.53 656.292 740.595 615.988C743.397 561.307 726.058 507.559 689.156 466.715C690.185 459.285 689.047 450.035 689.035 442.365L689.009 380.095C687.935 374.271 687.348 368.305 686.337 362.45Q684.49 352.944 681.545 343.719Q678.6 334.494 674.598 325.676C672.4 321.1 669.818 316.696 667.546 312.151C674.037 303.406 683.144 295.759 691.266 288.539Z"/>
	<path fill="#FBF9F7" transform="scale(0.672852 0.672852)" d="M726.188 323.926C729.342 326.068 734.157 330.045 736.065 333.369C720.492 348.917 705.56 365.587 689.009 380.095C687.935 374.271 687.348 368.305 686.337 362.45C691.728 356.586 697.634 351.283 703.366 345.762C710.969 338.44 718.409 331.069 726.188 323.926Z"/>
	<path fill="#FBF9F7" transform="scale(0.672852 0.672852)" d="M791.043 473.064C794.825 472.598 798.495 472.75 802.033 474.294C806.535 476.258 809.934 480.08 811.658 484.647Q811.834 485.111 811.986 485.584Q812.137 486.057 812.265 486.537Q812.392 487.017 812.495 487.503Q812.598 487.988 812.676 488.479Q812.754 488.969 812.807 489.463Q812.86 489.956 812.887 490.452Q812.915 490.948 812.917 491.445Q812.919 491.941 812.896 492.437Q812.873 492.933 812.825 493.427Q812.777 493.922 812.703 494.413Q812.63 494.904 812.532 495.39Q812.433 495.877 812.31 496.358Q812.187 496.839 812.04 497.313Q811.893 497.787 811.721 498.253Q811.55 498.72 811.355 499.176Q811.16 499.633 810.942 500.079C808.276 505.484 803.778 508.407 798.214 510.191C793.796 510.62 789.629 510.268 785.636 508.164Q784.812 507.731 784.035 507.219Q783.258 506.707 782.535 506.121Q781.812 505.536 781.15 504.882Q780.488 504.228 779.893 503.512Q779.298 502.797 778.777 502.026Q778.255 501.255 777.812 500.437Q777.368 499.619 777.007 498.762Q776.646 497.904 776.371 497.015C774.837 492.053 775.53 486.44 778.112 481.945C781.084 476.771 785.521 474.544 791.043 473.064Z"/>
	<path fill="#F2A123" transform="scale(0.672852 0.672852)" d="M691.266 288.539L691.493 288.575C694.791 291.673 698.31 294.811 701.067 298.41L701.4 298.341C706.457 302.819 722.329 318.138 726.231 323.571L726.188 323.926C718.409 331.069 710.969 338.44 703.366 345.762C697.634 351.283 691.728 356.586 686.337 362.45Q684.49 352.944 681.545 343.719Q678.6 334.494 674.598 325.676C672.4 321.1 669.818 316.696 667.546 312.151C674.037 303.406 683.144 295.759 691.266 288.539Z"/>
	<path fill="#FBF9F7" transform="scale(0.672852 0.672852)" d="M691.266 288.539L691.493 288.575C694.791 291.673 698.31 294.811 701.067 298.41C695.078 305.976 681.945 319.35 674.598 325.676C672.4 321.1 669.818 316.696 667.546 312.151C674.037 303.406 683.144 295.759 691.266 288.539Z"/>
	<path fill="#D9775A" transform="scale(0.672852 0.672852)" d="M327.049 469.139C326.455 452.493 326.99 435.611 326.979 418.946C326.969 406.017 326.755 393.206 328.238 380.338C333.084 338.27 353.477 301.129 383.199 271.438C418.129 236.544 463.147 219.414 512.155 219.444C511.006 227.864 510.789 254.208 511.912 262.512L512.232 262.615C511.267 274.009 512.081 286.119 512.042 297.572C512.01 307.107 511.088 320.733 512.217 329.973C521.867 318.732 535.4 309.548 549.803 305.796C573.02 299.749 590.542 304.997 610.589 316.767C610.769 316.111 610.931 315.381 611.336 314.813C612.215 313.577 613.874 312.486 614.975 311.366C617.312 308.99 619.054 306.461 620.81 303.641C635.677 318.289 647.302 332.392 654.754 352.161C656.158 355.886 657.872 360.064 658.692 363.944C669.127 368.128 679.314 376.847 689.009 380.095L689.035 442.365C689.047 450.035 690.185 459.285 689.156 466.715C726.058 507.559 743.397 561.307 740.595 615.988C738.53 656.292 726.599 693.733 702.666 726.444C693.069 738.183 684.247 752.757 670.489 760.024C667.706 759.232 665.019 758.127 662.318 757.096C661.942 757.619 661.358 758.73 660.881 759.095C658.099 761.224 652.283 762.568 648.936 763.929C625.126 773.614 600.335 784.306 574.895 788.763C568.697 787.049 561.555 786.716 555.161 785.537C540.444 782.825 526.476 778.871 512.545 773.392C485.951 763.399 460.326 748.575 437.93 731.134C425.703 721.612 414.645 710.959 404.036 699.692C397.378 692.622 390.653 685.593 384.634 677.959C354.923 640.277 332.389 592.094 328.143 543.923C326.582 526.21 327.532 507.841 327.527 490.049C327.526 483.378 328.006 476.27 327.127 469.674C327.103 469.495 327.075 469.317 327.049 469.139Z"/>
	<path fill="#A72A38" transform="scale(0.672852 0.672852)" d="M418.702 510.459C428.489 519.189 437.357 531.143 446.31 540.922Q469.724 566.459 494.806 590.361C499.726 595.037 506.016 602.333 512.302 605.053C513.595 612.806 512.598 622.857 512.58 630.827C512.558 640.449 513.215 650.543 512.481 660.112C504.697 653.033 497.971 643.681 491.75 635.23C471.286 607.43 454.449 578.1 437.894 547.892C431.224 535.722 423.786 523.395 418.702 510.459Z"/>
	<path fill="#8B2B43" transform="scale(0.672852 0.672852)" d="M362.176 368.789C362.98 362.403 365.202 356.074 367.465 350.073C374.502 331.411 384.624 315.865 398.835 301.864C419.614 281.393 450.14 267.299 479.113 263.563C490.033 262.155 500.936 262.406 511.912 262.512L512.232 262.615C511.267 274.009 512.081 286.119 512.042 297.572C512.01 307.107 511.088 320.733 512.217 329.973L511.592 330.405C496.122 314.56 479.144 303.146 456.256 302.821C437.132 302.549 417.961 310.499 404.297 323.856C388.557 339.242 381.279 359.304 378.936 380.822C378.057 380.37 378.269 380.547 377.669 380.055C372.762 376.036 367.275 372.586 362.176 368.789Z"/>
	<path fill="#2A304C" transform="scale(0.672852 0.672852)" d="M362.176 368.789C367.275 372.586 372.762 376.036 377.669 380.055C378.269 380.547 378.057 380.37 378.936 380.822L378.907 383.997C376.939 393.52 383.329 415.831 386.348 426.044C388.8 433.623 391.545 441.139 395.24 448.21C406.849 470.43 426.947 490.149 449.225 501.59C469.217 511.857 490.645 516.066 512.992 515.954L512.882 604.672L512.302 605.053C506.016 602.333 499.726 595.037 494.806 590.361Q469.724 566.459 446.31 540.922C437.357 531.143 428.489 519.189 418.702 510.459C407.68 495.507 394.718 482.317 384.102 466.992C364.034 438.021 355.85 403.558 362.176 368.789Z"/>
	<path fill="#D47F4C" transform="scale(0.672852 0.672852)" d="M512.575 660.636C533.959 683.217 557.721 701.161 583.716 718.02Q602.515 729.415 622.2 739.202Q641.885 748.988 662.318 757.096C661.942 757.619 661.358 758.73 660.881 759.095C658.099 761.224 652.283 762.568 648.936 763.929C625.126 773.614 600.335 784.306 574.895 788.763C568.697 787.049 561.555 786.716 555.161 785.537C540.444 782.825 526.476 778.871 512.545 773.392C513.875 768.474 512.876 747.951 512.85 741.352L512.575 660.636Z"/>
	<path fill="#FBF9F7" transform="scale(0.672852 0.672852)" d="M378.936 380.822C381.279 359.304 388.557 339.242 404.297 323.856C417.961 310.499 437.132 302.549 456.256 302.821C479.144 303.146 496.122 314.56 511.592 330.405L512.217 329.973C521.867 318.732 535.4 309.548 549.803 305.796C573.02 299.749 590.542 304.997 610.589 316.767C631 331.916 642.816 353.724 646.426 378.826Q646.948 382.381 647.2 385.966C648.674 398.494 644.293 414.746 640.354 426.724C630.553 456.439 598.537 486.62 570.779 500.697C553.096 509.665 532.819 515.439 512.992 515.954C490.645 516.066 469.217 511.857 449.225 501.59C426.947 490.149 406.849 470.43 395.24 448.21C391.545 441.139 388.8 433.623 386.348 426.044C383.329 415.831 376.939 393.52 378.907 383.997L378.936 380.822Z"/>
	<path fill="#2A304C" transform="scale(0.672852 0.672852)" d="M465.154 418.489C465.164 417.964 465.229 417.436 465.274 416.913C478.146 428.974 496.544 435.048 514.023 434.618C531.388 434.191 548.288 428.547 560.343 415.682L560.809 415.177C560.782 416.225 559.872 417.253 559.322 418.148C547.911 430.913 533.774 439.792 516.241 440.757C501.85 441.55 484.222 435.911 473.526 426.215C470.77 423.718 468.155 420.625 465.154 418.489Z"/>
	<path fill="#9CA6BA" transform="scale(0.672852 0.672852)" d="M559.322 418.148C558.328 427.422 549.639 438.519 542.547 444.204C532.634 452.151 519.347 456.732 506.64 455.222C494.082 453.729 482.664 447.631 474.853 437.65Q473.178 435.526 471.723 433.247Q470.267 430.967 469.046 428.554Q467.825 426.141 466.849 423.619Q465.874 421.096 465.154 418.489C468.155 420.625 470.77 423.718 473.526 426.215C484.222 435.911 501.85 441.55 516.241 440.757C533.774 439.792 547.911 430.913 559.322 418.148Z"/>
	<path fill="#8B2B43" transform="scale(0.672852 0.672852)" d="M626.826 369.077C630.448 372.661 643.062 385.181 647.2 385.966C648.674 398.494 644.293 414.746 640.354 426.724C626.826 418.161 612.365 410.627 598.447 402.695C606.874 391.192 623.09 383.786 626.826 369.077Z"/>
	<path fill="#251E31" transform="scale(0.672852 0.672852)" d="M512.79 366.254C519.694 366.374 525.63 367.601 532.067 370.12C537.925 373.081 543.76 376.642 546.036 383.207C548.127 389.237 545.798 395.901 543.033 401.333C538.585 410.073 531.415 416.583 522.017 419.569C513.301 422.338 504.406 421.243 496.362 417.017C489.076 413.189 483.31 405.251 480.966 397.443C479.273 391.805 478.87 385.54 481.708 380.188C482.767 378.191 484.249 376.618 485.839 375.039C485.878 374.993 485.912 374.943 485.956 374.901C492.977 368.169 503.532 366.913 512.79 366.254Z"/>
	<path fill="#2A304C" transform="scale(0.672852 0.672852)" d="M512.79 366.254C519.694 366.374 525.63 367.601 532.067 370.12C525.767 375.852 520.184 378.983 512.92 383.14Q512.763 374.698 512.79 366.254Z"/>
	<path fill="#525366" transform="scale(0.672852 0.672852)" d="M485.839 375.039C485.878 374.993 485.912 374.943 485.956 374.901C492.977 368.169 503.532 366.913 512.79 366.254Q512.763 374.698 512.92 383.14Q511.562 383.654 510.177 384.086C504.201 385.922 497.724 386.071 492.131 382.918C490.188 381.823 487.11 379.93 486.561 377.592C486.134 375.775 486.801 377.857 486.108 375.805C486.021 375.548 485.928 375.294 485.839 375.039Z"/>
	<path fill="#A72A38" transform="scale(0.672852 0.672852)" d="M542.892 356.023C554.061 348.559 562.784 337.927 577.196 337.538C591.374 337.156 600.493 346.2 610.56 354.807C616.042 359.493 621.594 364.111 626.826 369.077C623.09 383.786 606.874 391.192 598.447 402.695C573.837 389.869 559.591 377.999 542.892 356.023Z"/>
	<path fill="#8B2B43" transform="scale(0.672852 0.672852)" d="M592.758 350.911C596.949 353.58 599.034 358.212 600.287 362.862C601.243 366.408 600.878 370.496 598.938 373.652C596.158 378.172 590.95 380.94 585.881 382.023C580.493 383.174 575.226 382.386 570.636 379.28C565.947 376.107 561.365 370.787 560.346 365.116C559.633 361.153 560.821 354.719 563.353 351.546C564.842 349.68 566.904 348.527 569.262 348.248L573.56 347.724C569.798 350.144 566.493 352.841 565.392 357.41C564.293 361.969 565.301 367.572 567.771 371.538Q568.168 372.187 568.631 372.791Q569.094 373.396 569.617 373.948Q570.14 374.501 570.718 374.996Q571.297 375.491 571.923 375.923Q572.55 376.355 573.218 376.719Q573.886 377.083 574.589 377.376Q575.291 377.668 576.021 377.886Q576.75 378.104 577.498 378.244C581.775 379.036 586.337 377.879 589.842 375.341C593.348 372.803 595.621 369.054 596.127 364.746C596.811 358.924 594.337 356.003 592.758 350.911Z"/>
	<path fill="#2A304C" transform="scale(0.672852 0.672852)" d="M573.56 347.724C579.202 346.376 584.577 345.338 589.838 348.615C590.91 349.283 591.826 350.064 592.758 350.911C594.337 356.003 596.811 358.924 596.127 364.746C595.621 369.054 593.348 372.803 589.842 375.341C586.337 377.879 581.775 379.036 577.498 378.244Q576.75 378.104 576.021 377.886Q575.291 377.668 574.589 377.376Q573.886 377.083 573.218 376.719Q572.55 376.355 571.923 375.923Q571.297 375.491 570.718 374.996Q570.14 374.501 569.617 373.948Q569.094 373.396 568.631 372.791Q568.168 372.187 567.771 371.538C565.301 367.572 564.293 361.969 565.392 357.41C566.493 352.841 569.798 350.144 573.56 347.724Z"/>
	<path fill="#FBF9F7" transform="scale(0.672852 0.672852)" d="M580.003 355.931C580.654 355.991 581.319 356.034 581.953 356.207C583.533 356.637 584.985 357.813 585.797 359.224Q585.939 359.475 586.053 359.741Q586.166 360.006 586.25 360.282Q586.334 360.558 586.388 360.842Q586.441 361.125 586.464 361.413Q586.486 361.701 586.477 361.99Q586.467 362.278 586.427 362.564Q586.386 362.85 586.314 363.129Q586.243 363.409 586.141 363.679C585.384 365.643 583.817 366.359 582.021 367.124C581.439 367.107 581.083 367.112 580.481 367.011C578.871 366.741 577.446 366.032 576.538 364.628C575.791 363.472 575.593 362.23 575.893 360.895C576.461 358.371 577.897 357.249 580.003 355.931Z"/>
	<path fill="#EF3268" transform="scale(0.672852 0.672852)" d="M379.623 383.769C387.619 370.334 426.564 340.568 441.301 336.754C450.299 334.425 459.668 335.414 467.716 340.167C473.665 343.681 478.771 348.97 483.003 354.373C461.629 376.373 455.228 393.706 423.202 403.907C410.289 408.81 398.715 419.637 386.348 426.044C383.329 415.831 376.939 393.52 378.907 383.997L379.623 383.769Z"/>
	<path fill="#251E31" transform="scale(0.672852 0.672852)" d="M431.008 349.823C436.131 346.494 441.979 344.479 448.131 345.86C453.638 347.096 457.336 350.64 460.192 355.317L458.828 358.115Q458.424 357.162 457.976 356.23C456.273 352.722 453.638 349.687 449.808 348.508C443.737 346.641 437.945 349.84 432.686 352.492C432.294 351.535 431.591 350.677 431.008 349.823Z"/>
	<path fill="#5F1C3A" transform="scale(0.672852 0.672852)" d="M460.192 355.317C461.123 357.64 461.788 360.153 461.936 362.655C462.197 367.074 460.766 371.311 457.76 374.578Q457.122 375.264 456.421 375.885Q455.72 376.506 454.963 377.057Q454.205 377.608 453.398 378.083Q452.591 378.558 451.742 378.953Q450.892 379.348 450.009 379.659Q449.125 379.971 448.216 380.195Q447.307 380.42 446.38 380.555Q445.453 380.691 444.518 380.737Q444.036 380.758 443.554 380.754Q443.072 380.75 442.59 380.722Q442.109 380.693 441.63 380.64Q441.15 380.586 440.674 380.508Q440.198 380.43 439.727 380.328Q439.256 380.225 438.791 380.099Q438.325 379.972 437.867 379.822Q437.409 379.671 436.959 379.497Q436.509 379.324 436.069 379.127Q435.628 378.93 435.199 378.711Q434.769 378.492 434.352 378.251Q433.934 378.01 433.529 377.748Q433.124 377.486 432.734 377.203Q432.343 376.92 431.967 376.618Q431.592 376.315 431.232 375.994Q430.872 375.672 430.53 375.333C427.087 371.882 424.874 366.643 424.912 361.755C424.952 356.637 427.446 353.197 431.008 349.823C431.591 350.677 432.294 351.535 432.686 352.492C430.589 356.635 429.141 360.405 430.713 365.099C431.914 368.687 434.706 371.393 438.125 372.913Q438.871 373.241 439.647 373.492Q440.423 373.742 441.22 373.913Q442.017 374.084 442.827 374.173Q443.638 374.262 444.453 374.269Q445.268 374.276 446.08 374.2Q446.891 374.124 447.691 373.966Q448.491 373.808 449.271 373.57Q450.05 373.333 450.802 373.017C454.125 371.659 457.078 369.235 458.446 365.852C459.549 363.128 459.495 360.932 458.828 358.115L460.192 355.317Z"/>
	<path fill="#2A304C" transform="scale(0.672852 0.672852)" d="M432.686 352.492C437.945 349.84 443.737 346.641 449.808 348.508C453.638 349.687 456.273 352.722 457.976 356.23Q458.424 357.162 458.828 358.115C459.495 360.932 459.549 363.128 458.446 365.852C457.078 369.235 454.125 371.659 450.802 373.017Q450.05 373.333 449.271 373.57Q448.491 373.808 447.691 373.966Q446.891 374.124 446.08 374.2Q445.268 374.276 444.453 374.269Q443.638 374.262 442.827 374.173Q442.017 374.084 441.22 373.913Q440.423 373.742 439.647 373.492Q438.871 373.241 438.125 372.913C434.706 371.393 431.914 368.687 430.713 365.099C429.141 360.405 430.589 356.635 432.686 352.492Z"/>
	<path fill="#FBF9F7" transform="scale(0.672852 0.672852)" d="M441.609 355.51C442.457 355.434 443.428 355.294 444.274 355.386C445.868 355.561 447.255 356.482 448.188 357.765C449.196 359.152 449.493 360.714 449.157 362.386C448.715 364.59 447.629 365.611 445.859 366.884C443.757 367.075 441.494 367.142 439.829 365.592C438.782 364.617 438.249 363.459 438.201 362.033C438.105 359.146 439.678 357.426 441.609 355.51Z"/>
	<path fill="#8B2B43" transform="scale(0.672852 0.672852)" d="M379.623 383.769C384.198 381.945 387.636 382.113 392.185 384.007C403.363 388.662 412.315 398.519 423.202 403.907C410.289 408.81 398.715 419.637 386.348 426.044C383.329 415.831 376.939 393.52 378.907 383.997L379.623 383.769Z"/>
	<path fill="#8B2B43" transform="scale(0.672852 0.672852)" d="M620.81 303.641C635.677 318.289 647.302 332.392 654.754 352.161C656.158 355.886 657.872 360.064 658.692 363.944C669.127 368.128 679.314 376.847 689.009 380.095L689.035 442.365C689.047 450.035 690.185 459.285 689.156 466.715C726.058 507.559 743.397 561.307 740.595 615.988C738.53 656.292 726.599 693.733 702.666 726.444C693.069 738.183 684.247 752.757 670.489 760.024C667.706 759.232 665.019 758.127 662.318 757.096Q641.885 748.988 622.2 739.202Q602.515 729.416 583.716 718.02C557.721 701.161 533.959 683.217 512.575 660.636L512.481 660.112C513.215 650.543 512.558 640.449 512.58 630.827C512.598 622.857 513.595 612.806 512.302 605.053L512.882 604.672L512.992 515.954C532.819 515.439 553.096 509.665 570.779 500.697C598.537 486.62 630.553 456.439 640.354 426.724C644.293 414.746 648.674 398.494 647.2 385.966Q646.948 382.381 646.426 378.826C642.816 353.724 631 331.916 610.589 316.767C610.769 316.111 610.931 315.381 611.336 314.813C612.215 313.577 613.874 312.486 614.975 311.366C617.312 308.99 619.054 306.461 620.81 303.641Z"/>
	<path fill="#251E31" transform="scale(0.672852 0.672852)" d="M620.81 303.641C635.677 318.289 647.302 332.392 654.754 352.161C656.158 355.886 657.872 360.064 658.692 363.944C667.684 400.562 657.069 434.978 638.123 466.307C630.201 479.407 621.229 491.665 611.926 503.802C588.039 534.968 564.047 560.297 534.651 586.435C528.282 592.097 520.115 600.466 512.882 604.672L512.992 515.954C532.819 515.439 553.096 509.665 570.779 500.697C598.537 486.62 630.553 456.439 640.354 426.724C644.293 414.746 648.674 398.494 647.2 385.966Q646.948 382.381 646.426 378.826C642.816 353.724 631 331.916 610.589 316.767C610.769 316.111 610.931 315.381 611.336 314.813C612.215 313.577 613.874 312.486 614.975 311.366C617.312 308.99 619.054 306.461 620.81 303.641Z"/>
	<path fill="#5F1C3A" transform="scale(0.672852 0.672852)" d="M698.42 557.255C694.988 548.807 691.527 540.352 689.906 531.326C688.554 523.8 687.149 472.571 689.156 466.715C726.058 507.559 743.397 561.307 740.595 615.988C738.53 656.292 726.599 693.733 702.666 726.444C693.069 738.183 684.247 752.757 670.489 760.024C667.706 759.232 665.019 758.127 662.318 757.096Q641.885 748.988 622.2 739.202Q602.515 729.416 583.716 718.02C580.108 697.365 593.489 656.498 603.113 637.851Q604.019 636.064 604.969 634.3Q605.919 632.537 606.913 630.797Q607.906 629.058 608.943 627.344Q609.98 625.63 611.06 623.942Q612.139 622.255 613.26 620.595Q614.382 618.935 615.544 617.303Q616.706 615.672 617.909 614.069Q619.112 612.467 620.354 610.896Q621.597 609.325 622.878 607.785Q624.159 606.245 625.479 604.737Q626.798 603.23 628.155 601.756Q629.511 600.282 630.904 598.842Q632.297 597.402 633.726 595.998Q635.154 594.593 636.617 593.225Q638.08 591.857 639.577 590.525Q641.074 589.194 642.604 587.9Q644.133 586.607 645.695 585.352Q647.256 584.097 648.849 582.881Q650.441 581.666 652.063 580.49Q653.686 579.315 655.337 578.181Q656.988 577.046 658.667 575.953Q660.345 574.86 662.051 573.81Q663.757 572.759 665.488 571.751Q667.22 570.744 668.976 569.78Q670.732 568.815 672.511 567.896Q674.291 566.976 676.093 566.1Q677.895 565.225 679.718 564.395Q681.541 563.565 683.385 562.781Q685.228 561.997 687.09 561.259Q688.953 560.521 690.833 559.83Q692.714 559.139 694.611 558.495Q696.508 557.851 698.42 557.255Z"/>
</svg>
